<?xml version="1.0" encoding="UTF-8"?>
<svg id="Layer_1" data-name="Layer 1" xmlns="http://www.w3.org/2000/svg" viewBox="0 0 849.0928 504.6714">
  <defs>
    <style>
      .cls-1 {
        fill: #55db4f;
      }

      .cls-1, .cls-2 {
        stroke-width: 0px;
      }

      .cls-2 {
        fill: #10cd08;
      }
    </style>
  </defs>
  <path class="cls-2" d="M753.2257,220.3608c-2.4208.6271-4.3246,1.7102-6.2138,3.011-3.4852,2.3999-7.2188,4.4354-10.7734,6.7394-3.1249,2.0255-6.1419,4.2169-9.2143,6.3235-5.7129,3.9171-11.4259,7.8341-17.1496,11.7354-4.2325,2.8848-8.4472,5.7982-12.734,8.6006-4.4281,2.8948-8.9636,5.6252-13.3959,8.5138-3.2568,2.1226-6.3794,4.4519-9.6432,6.5632-2.6807,1.7341-5.534,3.2018-8.2149,4.9356-2.9835,1.9295-5.8267,4.0747-8.7882,6.0396-4.1805,2.7735-8.4678,5.3888-12.6073,8.2208-3.3534,2.2942-6.4645,4.9466-9.8483,7.1912-4.5451,3.0149-9.2528,5.7843-13.882,8.6732-.9557.5964-2.0752,1.0855-2.7696,1.9162-2.0129,2.4085-4.862,3.5932-7.3802,5.2222-1.783,1.1535-2.7614,2.2681-2.703,4.536.1991,7.7416.2393,15.4886.2474,23.2336.0087,8.2686-.0736,16.5373-.1552,24.8056-.0111,1.1218-.2416,2.2422-.3853,3.3613-.0441.3433-.2775.7243-.1866,1.0134.8002,2.5469-.1776,4.9799-.3823,7.4631-.0845,1.0242.1055,2.0766.2206,3.1105.1526,1.3712.4835,2.7341.5128,4.1054.1368,6.4239.257,12.8493.2691,19.2744.0173,9.1304-.0521,18.261-.1208,27.3913-.0092,1.2118-.23,2.4222-.3551,3.633-.2772,2.6809-.6716,5.3515.2181,8.0191.238.7135.1709,1.5538.1315,2.3303-.1635,3.2124-.3969,6.4214-.5475,9.6343-.0569,1.213.0746,2.4336.0604,3.6501-.0201,1.7244-.0267,3.4539-.1676,5.1707-.1271,1.5476.0311,1.9085,1.5311,2.0492,5.475.5132,10.8003,1.7634,16.02,3.4173,2.4637.7806,4.9373,1.7224,7.1678,3.0059,4.3839,2.5227,5.839,9.294,2.6349,13.199-2.5826,3.1477-5.5962,5.7198-9.2406,7.454-2.0108.9569-4.2185,1.5096-6.3539,2.1927-3.5398,1.1325-7.0631,2.3337-10.6485,3.3022-4.0113,1.0837-8.0712,1.9988-12.1336,2.8787-3.6345.7873-7.3001,1.4311-10.9539,2.1281-.5964.1137-1.2031.2493-1.8049.2488-6.3492-.0054-12.7025.0881-19.046-.1161-2.8945-.0931-5.5155-1.4699-7.9201-3.0692-.6158-.4096-1.07-1.1393-1.453-1.8054-.7806-1.3578-.3204-2.991,1.1882-3.3619,1.6512-.406,3.0449-1.0601,4.3612-2.1062.4855-.386,1.3292-.3287,2.0127-.4568,2.2922-.4295,2.4573-.7893,1.5537-2.8729-.4793-1.1054-.8304-2.2713-1.1734-3.4295-.4328-1.4618-1.0265-2.0615-2.6232-1.9227-1.8021.1567-3.6149.4571-5.3604.9277-2.0767.5598-4.0865,1.3673-6.1257,2.0663-.2456.0843-.4992.2444-.7399.2287-2.2827-.1489-4.1807.8687-6.139,1.8432-1.6387.8156-2.7786-.3658-3.8478-1.4048-1.1341-1.1022-1.429-2.5393-.6686-3.8172.8267-1.3891,1.8464-2.8653,3.1607-3.7231,3.5527-2.3186,7.346-4.2407,11.4621-5.4304,2.2459-.6492,2.7311-1.7094,2.0475-3.9212-1.2744-4.1233-2.4437-8.279-3.7132-12.4038-.9874-3.2082-2.1044-6.3767-3.0768-9.5892-.4728-1.5619-.7695-3.1793-1.1047-4.7803-.6035-2.8816-.974-5.8302-1.8148-8.6392-.9459-3.1599-.8543-6.4916-2.0498-9.6241-.8778-2.3001-1.0318-4.8702-1.5846-7.3028-.3623-1.5939-.8715-3.154-1.2957-4.7344-.7182-2.6754-1.5078-5.3356-2.1062-8.038-.5971-2.6969-.9498-5.4469-1.4951-8.1564-.5283-2.6245-1.1625-5.2277-1.7567-7.8388-.1905-.8375-.4192-1.6666-.6007-2.5059-.7858-3.6346-1.5997-7.2639-2.3265-10.9104-.5379-2.699-.9472-5.4236-1.4346-8.133-.2128-1.1835-.477-2.3577-.7192-3.5358-.5759-2.8007-1.3405-5.5789-1.6784-8.408-.3731-3.1237-.9306-6.1493-2.062-9.0993-.3406-.8881-.0373-2.0267-.012-3.0501.0146-.5888.3291-1.4057.0523-1.7271-1.5038-1.7466-.8419-4.067-1.6997-5.9149-1.4184-3.0554-1.3368-6.3006-1.1513-9.4518.2379-4.0403-2.9347-6.2771-6.1593-6.8622-7.5188-1.3644-15.0809-2.4891-22.6186-3.7516-4.3598-.7303-8.7004-1.5757-13.0609-2.3019-3.4975-.5825-7.0301-.9663-10.5125-1.6225-2.4553-.4627-4.8527-1.2332-7.2752-1.8692-.1677-.044-.3248-.1349-.4939-.1668-2.7085-.512-5.4403-.9235-8.1218-1.55-3.0554-.7138-6.2155-.7745-9.2354-1.3664-5.1024-1-10.2527-1.5536-15.3612-2.4211-2.5425-.4318-5.0261-1.2111-7.5355-1.8366-.1682-.0419-.3261-.1484-.4943-.1635-3.8148-.3425-7.3934-1.7004-11.0912-2.5311-3.5383-.7949-7.1903-1.0715-10.777-1.6678-2.7311-.4541-5.439-1.0484-8.1559-1.5872-3.9008-.7735-7.736-1.7835-11.7832-1.8304-5.3801-.0623-10.7101-.8318-15.9622-2.0648-.756-.1775-1.553-.1722-2.3249-.2911-1.7915-.2758-3.5794-.5754-5.3685-.8668-.0855-.0139-.1676-.0523-.2532-.0625-4.0485-.4833-8.1014-.9325-12.1435-1.4646-1.3511-.1779-2.6772-.5547-4.0087-.8662-.503-.1177-.9795-.397-1.4843-.4507-3.8744-.4126-7.7658-.6907-11.626-1.2048-3.1756-.4229-6.3237-1.072-9.469-1.6967-2.2505-.4469-3.1104.1213-3.2057,2.3782-.3039,7.1975-.5778,14.3964-.8967,21.5933-.0378.854-.213,1.7178-.443,2.5441-.6064,2.1785-.4362,2.849,1.371,4.2814,1.0207.8091,2.1544,1.4837,3.1267,2.3438,2.0754,1.836,1.6724,6.2941-.8406,7.3898-3.2265,1.4068-6.4869,2.9381-10.1823,2.7109-.7806-.048-1.5687-.0354-2.3505.0055-4.8441.2534-9.4698-1.0668-14.1124-2.0907-3.443-.7594-6.8017-1.9249-10.1623-3.019-.9693-.3156-1.8273-.9908-2.714-1.5371-.7389-.4552-1.3831-1.1805-2.1776-1.4077-2.5519-.7298-3.6426-3.1625-5.5704-4.6077-.3612-.2709-.4777-1.3725-.2349-1.8512.7621-1.5027,1.8109-2.7724,3.7808-2.719,1.5654.0424,3.1336.0217,4.6995-.0143.7776-.0179,1.5853-.021,2.3211-.2329.9082-.2614,1.5597-.8711,1.0979-1.9539-2.4168-5.6671-1.4272-11.606-1.5599-17.4804-.0678-3.0028.4584-5.8655.8107-8.7858.3143-2.605-.0282-3.1409-2.6279-3.4239-5.8592-.6378-11.582-2.1134-17.5235-2.3963-3.15-.15-6.4792-.4002-9.5105-1.2065-4.0777-1.0847-8.2846-.7306-12.3188-1.8453-1.6481-.4554-3.4557-.3149-5.1852-.4984-3.4383-.3649-6.9953-.3351-10.2761-1.2676-3.6912-1.0491-7.4109-.775-11.0833-1.3121-3.0564-.447-6.0589-1.2624-9.0848-1.9167-.1696-.0367-.3327-.112-.5034-.1341-3.6958-.4791-7.4022-.8882-11.0859-1.4464-3.7449-.5675-7.468-1.2794-11.1996-1.9338-.2555-.0448-.4982-.1744-.7539-.204-4.4772-.5192-8.9554-1.0303-13.4338-1.5394-.7765-.0882-1.5728-.081-2.3293-.2526-2.6977-.6119-5.366-1.3631-8.0763-1.9079-2.8818-.5793-5.8014-.9689-8.6985-1.4756-.6711-.1173-1.3109-.4042-1.9777-.5587-1.0021-.2322-2.0077-.4775-3.0259-.6054-1.194-.15-1.6407.4802-1.7789,1.6654-.5306,4.5507-1.5746,8.989-3.2071,13.2798-.1229.323-.244.6556-.2975.9945-.4061,2.5692-.9952,5.1297-1.1417,7.7149-.209,3.6863-1.1072,7.1804-2.1498,10.683-.391,1.3136-.334,2.7554-.5439,4.1291-.3929,2.5706-.5123,5.2412-1.3282,7.6748-1.1413,3.4043-.7519,7.0218-2.0017,10.4162-.8847,2.403-.9641,5.0954-1.4813,7.6427-.6662,3.2815-1.4112,6.5469-2.1209,9.8195-.0736.3396-.1908.6801-.1985,1.0223-.0898,3.9484-1.357,7.6479-2.3107,11.4236-.6747,2.6713-1.0007,5.429-1.5441,8.1356-.4078,2.031-.9398,4.0367-1.3704,6.0634-.8088,3.8065-1.5287,7.6326-2.3883,11.4273-.9937,4.3869-2.0976,8.7488-3.1548,13.1213-.9919,4.1025-1.934,8.2179-2.9996,12.3011-.5437,2.0832-1.2987,4.1122-1.9804,6.1582-.4142,1.2432-.2271,1.7538,1.089,2.0407,3.376.7362,6.8263,1.1878,10.1455,2.1156,5.5488,1.5509,11.4028,2.3007,16.23,5.9071,2.5065,1.8727,3.3013,4.9385,1.8888,7.7766-.8005,1.6084-1.8237,2.8686-3.5431,3.631-2.9941,1.3278-5.8727,2.9177-8.8754,4.224-1.5718.6838-3.2885,1.065-4.968,1.4637-2.5233.5991-5.0659,1.1213-7.6104,1.6251-3.0649.6069-6.1283,1.2378-9.2142,1.7179-4.1111.6396-8.2426,1.1482-12.3668,1.7026-.9477.1274-1.9828.01-2.8365.3548-2.3438.9467-4.7816.8201-7.2069.9182-3.8172.1545-7.6389.2267-11.4515.4553-3.0307.1818-6.0478.5797-9.0759.8181-2.5277.1989-5.0313.0924-7.4508-.8311-.6395-.244-1.3559-.3803-2.0409-.3958-4.0488-.0913-7.8973-1.1988-11.6217-2.5884-2.3281-.8687-4.584-2.1524-6.5797-3.6421-3.504-2.6155-3.9926-7.1453-1.2848-10.5589.9527-1.201,2.181-2.2344,3.4323-3.1383,4.1981-3.0323,8.7469-5.267,13.9761-5.9423,1.3591-.1755,2.6606-.7631,4.0059-1.0898,1.0116-.2457,1.4484-.9279,1.5645-1.8511.4442-3.5309.8497-7.0666,1.2809-10.5992.5342-4.3762,1.0789-8.751,1.6206-13.1263.0959-.7748.2015-1.5485.2986-2.3232.3546-2.8302.724-5.6587,1.0517-8.492.1097-.9486.0677-1.9145.1694-2.8645.4971-4.6469.9345-9.3025,1.5568-13.933.5995-4.4609,1.4487-8.8878,2.0886-13.3439.2956-2.0585.2692-4.1621.5387-6.2256.469-3.5912,1.0286-7.1713,1.5984-10.7484.4907-3.08,1.0659-6.1464,1.5727-9.2238.7719-4.6872,1.5401-9.3753,2.2604-14.0706.2368-1.5434.0129-3.2284.5533-4.6361.642-1.6723.5427-3.4566,1.0844-5.0293,1.2562-3.6471.8091-7.5293,2.1277-11.2133,1.1161-3.118,1.028-6.6617,1.5205-10.01.4156-2.8257.8758-5.6455,1.3626-8.4599.2645-1.529.5726-3.0547.9547-4.558.697-2.7419,1.477-5.4625,2.1916-8.2001.173-.6628.4481-1.4118.2958-2.0269-.644-2.6009-1.1782-5.3241-4.4579-6.0424-2.5257-.5532-4.8857-1.647-7.5759-1.7353-2.029-.0666-4.0373-.8642-6.0481-1.3633-2.6891-.6675-5.3791-1.3338-8.0554-2.0501-3.6357-.9731-7.0832-2.3623-9.8516-5.0183-.8644-.8293-1.7329-1.7482-2.2835-2.7927-1.4818-2.8111-3.3573-5.4712-3.4662-8.8625-.032-.9977-.6216-1.9756-.944-2.9663-1.1942-3.6703-2.853-7.268-3.4488-11.0336-.6566-4.1494-3.0057-7.7717-3.156-12.032-.0569-1.6129-.5951-3.2608-1.1815-4.7902-.7719-2.0133-1.021-3.9933-.7127-6.1265.194-1.3427-.9588-2.633-2.5808-2.6833-5.4812-.17-10.4754-2.4635-15.7609-3.3982-2.4753-.4377-4.7-1.117-6.6324-2.6759-.8727-.704-1.7445-1.4507-2.4448-2.3169-1.0572-1.3078-1.3493-2.9054-.6371-4.4286,1.0288-2.2003,2.2072-4.3129,4.2368-5.8497,7.3505-5.5659,14.9468-10.7197,23.3447-14.6183,1.7249-.8007,3.3556-1.8372,4.9432-2.895,4.6337-3.0873,9.6373-5.4715,14.6132-7.9251,2.5574-1.261,4.945-2.8639,7.4901-4.1529,6.0931-3.0859,11.6651-7.1316,18.0628-9.6702,1.6652-.6608,3.1006-1.8984,4.6456-2.8646,3.0122-1.8839,5.9842-3.8371,9.0541-5.6221,2.6762-1.556,5.4397-2.9686,8.2075-4.3592,6.2487-3.1394,12.5198-6.2343,18.7893-9.332,8.4463-4.1734,16.8586-8.4187,25.3633-12.4697,6.57-3.1295,13.2718-5.9812,19.8922-9.0062,4.7943-2.1906,9.5609-4.4427,14.3223-6.7043,5.2935-2.5143,10.5285-5.1555,15.8621-7.5806,4.0063-1.8216,8.1432-3.3535,12.1942-5.0796,4.0591-1.7296,8.087-3.5327,12.1226-5.3169,5.2205-2.3081,10.427-4.6481,15.6546-6.9398,5.3709-2.3545,10.7709-4.6427,16.138-7.0057,5.2158-2.2964,10.4167-4.6275,15.6049-6.9857,6.6011-3.0003,13.0925-6.2653,19.8029-8.994,4.9629-2.0182,9.8687-4.1393,14.7387-6.3597,4.8734-2.222,9.7813-4.3698,14.6305-6.6429,5.3956-2.5293,10.7063-5.2414,16.1211-7.7274,4.4736-2.0538,9.0317-3.927,13.5843-5.8025.9364-.3858,2.0113-.5779,3.0279-.5993,3.0447-.0642,6.0951-.0757,9.1371.0465,1.5479.0622,3.0748.5424,4.6249.679,2.4238.2136,4.8674.2122,7.2876.4526,4.0435.4016,8.0697.9776,12.1133,1.3778,4.474.4428,8.9081,1.1664,13.4209,1.3872,4.1255.2018,8.2162,1.1096,12.3233,1.6985.8598.1233,1.7221.2426,2.5874.3134,5.8731.4807,11.794.6389,17.6057,1.5202,4.4095.6687,8.8106.7609,13.2189,1.1041,7.5241.5858,15.0293,1.4116,22.5465,2.0927,2.1644.1961,4.3487.1752,6.5124.3766,1.8909.176,3.7642.5353,5.6482.7919.7721.1051,1.5509.167,2.3284.2251,4.0675.304,8.1352.6053,12.2036.8977,2.1679.1558,4.3367.299,6.506.4345,2.5793.1611,5.1659-.2112,7.7217.8077,1.2987.5177,2.9229.2311,4.4008.2844,2.1743.0784,4.3496.1321,6.5241.2055.3459.0117.7769-.0492,1.0216.1273,1.9499,1.4065,4.1706.903,6.309.9536,1.9975.0473,3.9721.0267,5.8859.8655.8294.3635,1.8817.2175,2.8325.3053,4.8416.4469,9.6806.9233,14.5251,1.3345,5.8755.4988,11.8131.595,17.6105,1.5522,3.0611.5053,6.1477.8503,9.2095,1.3468,2.2216.3602,4.4751.5215,6.7122.7893,1.4634.1752,2.9234.3804,4.3843.576.4302.0576.8825.2515,1.2842.1737,3.7225-.7211,7.1666.6284,10.7225,1.2845,2.8105.5185,5.7053.5726,8.5596.8631,6.5677.6685,13.1461,1.2561,19.695,2.0768,3.2665.4093,6.4641,1.3432,9.7194,1.8783,2.0465.3364,4.1457.3408,6.2146.5573,1.1056.1157,2.1996.3524,3.2936.5624.3372.0647.6558.3182.9844.3214,2.7106.0269,5.2946.7539,7.9345,1.2351,4.3392.7911,8.7737,1.0444,13.1497,1.6561,1.9697.2753,3.9454.7186,5.8286,1.3523,2.6134.8794,5.2568,1.0542,7.9635.9405.5149-.0216,1.0397.0504,1.5518.1306,2.1333.3341,4.264.6849,6.3944,1.0367.5115.0845,1.0194.1918,1.5272.2971,1.5102.3132,3.0087.7049,4.5321.9262,1.6027.2328,3.3317-.2417,4.7414.9982.222.1952.6667.1685,1.0116.1875,3.4845.1917,6.8,1.1534,10.0986,2.1962.1657.0524.3349.1168.5055.1278,4.261.2755,8.2952,1.8198,12.4727,2.3541,3.4978.4474,6.8672,1.5584,10.4835,1.5549,2.7012-.0026,5.399,1.0917,8.106,1.6611,5.0772,1.0679,10.174,2.0466,15.236,3.1817,4.1434.9291,8.2481,2.0311,12.3697,3.0577.3366.0839.6663.2035,1.0069.2623,3.148.5428,6.3333.9236,9.438,1.6496,4.034.9433,7.9818,2.2526,12.01,3.2247,2.7398.6612,5.5712.9342,8.3301,1.527,2.9345.6304,5.8289,1.4461,8.7468,2.1566,2.1777.5302,4.373.99,6.5456,1.5398,1.9282.488,3.8589.9867,5.7484,1.6037,4.6009,1.5025,9.2697,2.8528,13.7432,4.6762,6.038,2.461,11.9967,5.1838,16.3604,10.3542,2.9187,3.4583,5.1403,7.238,4.6855,11.9581-.2938,3.0493-1.4728,5.8566-3.1749,8.4296-1.5272,2.3084-3.0558,4.6182-4.4896,6.9844-.3833.6324-.6524,1.4966-.581,2.2154.452,4.5465.4326,9.1698,2.0116,13.5504.0876.2432.1609.5061.1679.7618.116,4.2568.327,8.5149.2861,12.7705-.0234,2.4373-.2926,4.8433.5211,7.2271.2712.7945.3005,1.7331.2054,2.5795-.271,2.4113-.474,4.855-1.0459,7.2026-1.2437,5.1056-3.1515,9.8936-7.3751,13.4072-2.3283,1.9369-4.4883,4.0101-7.163,5.5821-3.1245,1.8364-5.8331,4.3675-8.8127,6.4689-1.4749,1.0401-3.0943,1.9314-4.7575,2.63-1.2779.5367-1.7169,1.1596-1.5045,2.5503.6527,4.2741,1.1573,8.5706,1.7678,12.8515.3551,2.4901.9044,4.9555,1.1889,7.4522.7451,6.5391,1.4226,13.0864,2.0628,19.6366.2199,2.2491.2049,4.5202.377,6.7751.177,2.3194-.1708,4.6993.9037,6.9282.2803.5815.1688,1.3693.1742,2.0629.0344,4.4126.2526,8.8078,1.1512,13.1443.0176.0849.0219.1727.0309.2593.4327,4.1332.663,8.3007,1.3571,12.3895.6417,3.7802.7107,7.6479,1.4271,11.3453.8393,4.3318.9288,8.6176,1.0833,12.9489.0186.5207-.0549,1.1134.1638,1.5469,1.1999,2.378.7457,4.9388.9626,7.429.1338,1.5374.5205,3.0514.7569,4.5816.1592,1.0303.3198,2.0675.3668,3.1067.1873,4.1408-.0031,8.3251.8955,12.392.6886,3.1161.5566,6.2177.4786,9.3433-.0108.4352-.0258.872-.0018,1.306.1104,1.9966.7081,2.5831,2.7697,2.5832,2.6964,0,5.3989-.1784,8.0868-.0428,1.4283.0721,2.9735.3811,4.2148,1.0494,2.26,1.2168,2.5559,3.6785.6907,5.4298-1.1808,1.1088-2.586,2.1714-4.0862,2.7101-4.064,1.4594-8.1738,2.9014-12.5477,3.1255-1.3773.0706-2.7691-.2086-4.1566-.2527-1.2138-.0386-2.4474-.09-3.6426.0767-1.6498.2302-2.2483.9135-2.3945,2.2884-.152,1.4292.4931,2.1195,1.839,2.6915,2.1313.9058,4.3182.8579,6.4117.5137,4.2052-.6913,8.3236-.3085,12.4642.3093,2.0678.3085,3.0094,1.6144,2.206,3.4764-.4922,1.1407-1.3234,2.278-2.2972,3.0401-2.5501,1.9957-5.4513,3.0492-8.7199,3.7017-2.8774.5743-5.7823,1.012-8.6619,1.5772-5.6976,1.1182-11.4508.7199-17.1628.43-2.8003-.1421-5.5424-1.2711-8.33-1.8634-2.8621-.6081-5.7548-1.0717-8.6197-1.6672-1.4326-.2978-2.8414-.7214-4.2471-1.1353-4.1555-1.2234-8.3592-2.3158-12.4345-3.7668-2.3954-.8528-4.2307-2.7027-5.7154-4.8079-.8345-1.1832-.8612-2.4459-.2546-3.7093,1.4074-2.9318,3.5264-5.0975,6.6374-6.2694,1.9331-.7281,3.8478-1.5414,5.6775-2.4954,1.2769-.6658.8602-1.9662.6079-3.0477-.3532-1.5138-.8367-2.9966-1.2324-4.5011-.5956-2.2644-1.2082-4.5257-1.732-6.8071-.6786-2.9553-1.2489-5.9353-1.921-8.8922-.3841-1.69-.9108-3.3472-1.3144-5.0334-.7466-3.1193-1.4798-6.2425-2.1632-9.3761-.7713-3.5366-1.4908-7.0846-2.2151-10.6314-.4495-2.2011-.9208-4.4-1.2797-6.6166-.2894-1.7878-.0919-3.675-1.215-5.2713-.0941-.1339-.1172-.328-.1424-.4987-.4421-2.9973-.8969-5.9929-1.3128-8.9939-.4643-3.3491-.6194-6.7685-1.402-10.0394-1.0927-4.5668-1.5096-9.2222-2.3588-13.8135-.5337-2.8853-1.2835-5.7302-1.9162-8.5978-.1302-.5901-.1901-1.1982-.2486-1.8013-.2167-2.2349-.0356-4.5162-1.1426-6.6291-.3349-.639-.1887-1.5352-.2428-2.315-.0998-1.4396-.5662-2.7016-1.7382-3.7821ZM128.8105,260.149c-.1252.2164-.3245.4208-.3616.6514-.1111.6898-.1322,1.553.7692,1.5219.4881-.0168,1.0308-.6875,1.382-1.1817.1167-.1642-.2862-.6978-.4515-1.0624-.4942-.8869-.9466-.9834-1.3381.0708ZM627.9111,275.9165c.4204,1.2104.7083,1.2657,1.7328.3327l2.4942-1.3617c.2976-.3237.8675-.6868.8277-.9617-.057-.3947-.4991-.9289-.8826-1.0407-.8028-.2341-1.6885-.2752-2.2094.6563-.5056.42-1.0113.8399-1.5169,1.2599-.1493.1891-.2986.3782-.448.5673.0008.1826.0015.3653.0022.5479ZM778.6059,273.5908c-.3027.6916-.1083,1.1557.628,1.3715.0805,1.707.161,3.414.2414,5.121-.7782,1.3703-.2749,2.3838.8943,3.2118.0663.4965.1326.993.1989,1.4895-.9857,1.6865.2368,2.6985,1.1612,3.8015.0593.8295.1185,1.659.1777,2.4885-.0673.7306-.2813,1.4842-.1716,2.1872.2356,1.5076.6198,2.9936.9768,4.4803.5114,2.1298,1.0531,4.2523,1.5818,6.3779.0401.2848.0802.5696.1204.8545-.4839,1.3942.1399,2.4634,1.015,3.4588.0535,1.005.107,2.0099.1605,3.0149-.0848.5574-.4159,1.2374-.2104,1.6503.7538,1.5151.7752,3.1206,1.0024,4.7328.3326,2.3611.9215,4.6933,1.5288,7.0042.1798.6842.7891,1.2556,1.2016,1.8787.0507.4841.1014.9681.1521,1.4522-.1761,2.2517.8483,4.0715,2.4274,5.4402,1.1724,1.0162,3.7657.2879,3.9017-.9379.1838-1.6558.4544-3.4576-1.2851-4.6315-.045-.3114-.0899-.6229-.1348-.9343.0827-.5585.3437-1.1605.2195-1.6683-.8123-3.3192-1.6736-6.6278-2.608-9.9145-.1676-.5897-.7494-1.0617-1.14-1.588-.0364-.3129-.0726-.6257-.1089-.9386.1187-.22.3794-.4752.3349-.6548-.7553-3.0444-1.5448-6.0805-2.347-9.113-.0327-.1235-.2662-.1938-.406-.2888l-.1477-1.9691c.0767-.9942.2953-2.0041.1864-2.9776-.091-.8147-.6482-1.5657-.8528-2.3816-.5402-2.1538-.9275-4.3482-1.5298-6.483-.2403-.8512-.886-1.5881-1.3472-2.377l-.1104-1.4559c.6915-1.1773.0408-1.7664-.9642-2.2003-.0537-.4821-.1073-.9642-.161-1.4463.9249-2.1232-.7519-3.6042-1.3227-5.3582-.0994-.4776-.1988-.9553-.2982-1.433.7063-1.0741-.0742-1.6283-.7731-2.2111-.1147-.8279-.2295-1.6559-.3442-2.4839.8586-1.1591-.011-1.6482-.8355-2.155-.0547-.1576-.1315-.3037-.2303-.4382.0466-.3508.0931-.7016.1397-1.0525.0665-.4834.3014-1.0175.1734-1.4423-1.244-4.1305-2.5411-8.245-3.8531-12.3545-.0864-.2704-.4185-.4625-.6579-.7134-1.5135,2.1243-1.3349,4.2558.3653,5.6229.044,1.0351.088,2.0702.132,3.1053-.0754.3957-.2795.8176-.205,1.1827.4386,2.1505.882,4.3041,1.4537,6.4215.227.8409.787,1.5918,1.1954,2.3836.1582.9569.3164,1.9137.4746,2.8706ZM24.3984,165.0951c-.3528.3532-.7055.7065-1.0583,1.0597-.6599.612-1.4026,1.1596-1.948,1.8607-.3167.4071-.6038,1.3161-.3972,1.5487.3926.4419,1.385.9495,1.7162.749,1.9641-1.189,4.2254-.9179,6.2738-1.5222,2.082-.6142,3.3223-2.3317,4.2022-4.2474-1.6875-1.6324-4.7669-2.1216-6.9581-1.035-.7002.3472-1.2253,1.0477-1.8306,1.5865ZM97.5466,211.5785c1.011-.3532,2.1093-.2172,2.9176-1.3639,1.4402-2.043,3.1702-3.8849,4.816-5.7788,1.8691-2.1509,3.8223-4.2308,5.6329-6.4289.3476-.422.4041-1.3216.2074-1.859-.1071-.2928-1.1142-.5319-1.5668-.3726-1.566.5509-2.8614.1061-4.1988-.6662-1.2448-.7189-5.1701-1.3238-7.0727-1.2156-.103.4857-.2984.9889-.303,1.4937-.0446,4.9267-.0467,9.8538-.0959,14.7805-.0048.485-.2428.9677-.3683,1.4482l.0011.0765.0305-.1141ZM700.4362,222.4567s-.0393.0348-.0393.0347c-.7561.6696-1.6154,1.2544-2.2489,2.0248-1.9172,2.3313-3.8146,4.6852-5.5909,7.1242-1.6247,2.2307-4.1743,3.7814-4.9535,6.6158-.1857.6755-.0684,1.4343-.0905,2.1549.7262-.0102,1.5791.2257,2.1573-.072,2.9388-1.513,5.7157-3.2418,7.6243-6.1041.7078-1.0614,1.6897-1.9859,2.6882-2.7989,2.7681-2.2538,5.5382-4.4804,7.361-7.6448.3427-.595.8316-1.1114,1.2865-1.6351,2.21-2.5445,4.4767-5.0414,6.6322-7.6308,1.3849-1.6637,2.4912-3.5669,3.9315-5.1755,5.4979-6.1403,11.1016-12.1858,16.6139-18.3134,1.0952-1.2175,2.0164-2.6056,2.9042-3.9881.3072-.4784.2695-1.1783.408-1.8693-1.4493-.1343-2.0146.5069-2.7316,1.2178-1.7748,1.7596-3.7145,3.3567-5.6282,4.9713-1.3771,1.1619-2.9028,2.1576-4.2145,3.3852-2.5251,2.3632-4.0745,5.607-6.9554,7.6949-.753.5457-1.1017,1.6491-1.6361,2.4964-.271.274-.5419.5481-.8128.8221-2.2653,2.2577-4.5305,4.5155-6.7958,6.7731-.1741.18-.3481.3601-.5221.5401-.4871.3308-1.0359.5983-1.4511,1.0029-2.4058,2.3446-4.7908,4.7111-7.1535,7.0991-.3416.3451-.5258.8459-.7829,1.2746ZM108.777,338.5008c-.7599,1.2059-1.7533,4.7832-1.6342,5.9853.0136.1375.204.2576.3124.3857l-.1242,1.4939c-1.1041.6234-1.7098,1.4165-.9151,2.6866-.0482,1.0197-.0964,2.0394-.1446,3.059-.8171.5084-1.6017,1.0301-.8917,2.1669-.1053,1.1823-.2107,2.3645-.316,3.5467-.6518.5888-1.4265,1.1322-.8075,2.1897-.1109,1.0119-.2218,2.0239-.3327,3.0358-.873,1.6732-1.8134,3.3317-1.1558,5.3364l-.1535,1.4897c-.8263.5026-1.5986,1.0278-.9048,2.1656-.0984,1.1827-.1968,2.3654-.2952,3.5481-.7998.7424-1.6319,1.4748-.8307,2.7082-.0809.4902-.1618.9803-.2427,1.4705-.8122.6738-.894,1.4067-.1781,2.204-.0542.6696-.1084,1.3391-.1625,2.0087-.2692.1927-.6973.332-.7829.5865-.778,2.3135-.9493,4.6486-.0069,6.9678.0436.1073.2953.1301.4502.1919,2.1177-1.5332,2.7088-2.941,2.1194-5.0479.0398-.6747.0797-1.3495.1195-2.0242.2499-.4234.4998-.8468.7498-1.2702.1526-1.1309.3052-2.2618.4579-3.3928.6633-.5799,1.483-1.0989.8486-2.1831.0993-.8372.1987-1.6745.298-2.5117.8169-1.5022,1.9086-2.9377,1.1697-4.8176.0631-.6681.1261-1.3362.1892-2.0043,1.0486-.6345,1.7455-1.3943.9567-2.6837.0485-.3199.0971-.6398.1456-.9597,1.1143-1.5718,1.317-2.524.9078-4.2629.0886-.6637.1771-1.3273.2657-1.991.5047-.3271.8347-.6772.1527-1.1605.0503-.3229.1006-.6459.1509-.9688,1.0956-.6358,1.7085-1.4282.8726-2.6905.0788-1.1866.1576-2.3732.2363-3.5598.9959-.4332,1.7206-.9809.9185-2.1738.0731-1.1872.1463-2.3744.2194-3.5616.737-.961,1.615-1.8869.8057-3.2333.075-.3156.15-.6313.225-.9469,1.3272-2.1597.2136-4.8723,1.5774-7.0314.0324-.0513-.1776-.2557-.2745-.3888.0723-1.3609.1446-2.7218.2168-4.0828,1.0805-.8596,1.6966-1.846.8804-3.2237l.2867-4.0758c.7211-1.3541,1.0438-3.393.7604-4.8051.019-.5417.0381-1.0835.0571-1.6253.4079-1.4772.8266-2.9515,1.2194-4.4326.2058-.7761-.0195-1.4146-.8349-1.6348-.8361-.2258-1.3316.2772-1.5278,1.0252-.5469,2.0847-1.0711,4.176-1.5448,6.2781-.0574.2547.2496.5916.3878.8903-.069.4904-.1379.9808-.2069,1.4713-1.3938.9844-1.6317,2.2474-.9022,3.7435-.0843.4893-.1686.9786-.2529,1.4679-.7012.4931-.8942,1.0397-.1767,1.6819-.0431.3256-.0861.6511-.1292.9767-1.2358,1.3818-1.4564,2.3922-.9272,4.2472-.0599.4936-.1198.9871-.1798,1.4807-1.0381.8754-1.659,1.8608-.8497,3.2232-.0907,1.0105-.1813,2.0211-.272,3.0317ZM583.7598,340.0794c-.0892.5053-.2563,1.0107-.2553,1.5158.0081,4.0815-.0059,8.1643.0962,12.244.0736,2.939.4678,5.875.4453,8.8102-.0334,4.3269-.322,8.6515-.4738,12.978-.0302.8638-.1279,1.798.1408,2.5854.7066,2.0712.4962,4.0837.0905,6.1578-.3555,1.8174-.2796,3.6204,1.0054,5.1511.0008.5582.0017,1.1165.0024,1.6747-.2195.4397-.6505.8935-.6221,1.3166.1277,1.8987.0297,3.9274.6977,5.6426.6663,1.7105.8141,3.3571.7698,5.0727-.2764,10.6991.4404,21.3589,1.204,32.0172.2713,3.7861.6008,7.568.8769,11.3538.0755,1.0356-.1449,2.1314.1168,3.1068.5822,2.1702.3791,4.2851.0484,6.4423-.1429.9321-.1212,1.9031-.0623,2.8494.1022,1.6396.3229,3.2717.4344,4.9109.0884,1.3004.0653,2.6081.1355,3.9102.0417.7741.3404,1.3542,1.3468,1.1879.1339-.1753.3351-.3523.4294-.5747,1.9624-4.6278,1.1351-9.3823.4835-14.0872-.1588-1.1461-.2608-2.1369.0365-3.273.2952-1.1278.5118-2.4304.2337-3.5215-.5567-2.1849-.6228-4.3443-.527-6.5605.0589-1.3599-.0577-2.7311-.157-4.0927-.063-.8628-.4784-1.7627-.3257-2.5682.9507-5.0146-1.273-9.9546-.2885-14.9602.0783-.3979-.0811-.8618-.1984-1.2755-.6347-2.2403-.3652-4.4285.0633-6.6873.4113-2.168.8527-4.4845-.9078-6.4086-.0229-1.3766-.0458-2.7531-.0687-4.1296l-.0178-13.2339c.0019-.4637.0038-.9275.0057-1.3912-.1327-2.8301-.2627-5.6603-.399-8.4902-.1544-3.2052-.3752-6.4084-.461-9.6153-.2925-10.9258.7095-21.9071-1.4759-32.7517-.2929-1.4536-1.244-4.1372-2.2892-5.3416-.544,3.0616-.6683,5.8435-.1374,8.6575l.0036,1.3781ZM430.3309,35.2834l-1.5118.1325c-1.2321-1.0236-2.0286.2473-3.0167.5583-5.4923,1.7285-10.9938,3.4275-16.4876,5.1512-4.0945,1.2847-8.1907,2.5655-12.2613,3.9227-.4838.1613-.8106.7932-1.2102,1.2069-.33.0406-.66.0813-.99.1219-.638-.0267-1.3363-.2353-1.9029-.0471-1.9488.647-3.8385,1.4698-5.7761,2.154-1.5448.5454-3.1441.9365-4.6886,1.4825-5.1166,1.8089-10.2167,3.6646-15.3287,5.4868-2.9084,1.0367-5.8521,1.9788-8.736,3.0785-3.9499,1.5062-7.8518,3.138-11.7858,4.6865-5.0482,1.987-10.1046,3.9538-15.1641,5.9119-3.7093,1.4356-7.483,2.7188-11.1323,4.2919-5.9465,2.5634-11.7497,5.4662-17.7342,7.9324-6.1602,2.5386-12.1544,5.378-17.96,8.6308-1.0508.5888-2.1152,1.2066-1.8612,3.1013,1.4031-.1453,2.7736-.1359,4.0639-.4528,2.5906-.6363,4.9931-2.0575,7.8085-1.7572.3939.042.8153-.2714,1.2362-.365,1.0897-.2424,2.1827-.4734,3.281-.6719.9355-.1691,1.9086-.1864,2.8163-.4434,5.2389-1.4831,10.464-3.0147,15.6919-4.5364,1.328-.3865,2.6393-.8337,3.9757-1.187,1.9848-.5247,4.0087-.9112,5.9742-1.497,5.1253-1.5273,10.2139-3.1784,15.3445-4.6869,3.2304-.9497,6.5188-1.7001,9.7655-2.5966,3.8995-1.0767,7.7897-2.1892,11.6685-3.3383,1.3234-.3921,2.5781-1.2661,3.9024-1.3561,3.3173-.2254,6.0701-1.8004,8.9948-3.085,5.2836-2.3207,10.6599-4.4322,16.0122-6.5942,5.2776-2.1319,10.5565-4.2625,15.8668-6.3108,4.5099-1.7395,9.0651-3.3616,13.6008-5.0341.9718-.3583,1.9271-.7801,2.9234-1.0494,1.8953-.5123,3.8552-.8124,5.7139-1.4262,2.4643-.8138,4.8451-1.877,7.284-2.7724,2.9152-1.0702,5.8377-2.1256,8.7868-3.0972,3.2713-1.0777,6.5717-2.0684,9.8691-3.0652,1.0869-.3286,2.0236-.7966,2.7954-2.0817-2.2109-.7008-4.1629-1.0957-6.2084-.2721-1.203-.0395-2.4059-.079-3.6089-.1185-.3221-.244-.6588-.716-.9641-.6966-2.9248.1867-5.6069-.8671-8.3798-1.4837-1.0741-.2388-2.2384-.1813-3.3515-.1072-1.3703.0911-2.7468.2612-4.0894.545-1.2163.2571-2.6638.2121-3.2265,1.7348ZM382.254,41.2208c-.0746-.1966-.1492-.3933-.2237-.5899-.6257.1733-1.2512.3476-1.8773.5196-1.9096.5244-3.8059,1.4201-5.7321,1.49-3.4493.1252-6.6141,1.3103-9.9021,2.023-2.2773.4937-4.5217,1.1386-6.7974,1.6405-2.5206.5559-5.1141.844-7.5797,1.5734-4.3722,1.2934-8.6477,2.89-13.1341,3.8251-2.0962.4369-4.108,1.2817-6.1548,1.9516-2.5393.8312-5.0581,1.7296-7.6167,2.4955-3.2949.9864-6.6431,1.7979-9.9266,2.8187-3.2083.9974-6.365,2.1609-9.5426,3.2566-1.3051.45-2.5929.9547-3.9109,1.3624-3.2216.9966-6.4699,1.9086-9.6816,2.9352-2.9467.9419-5.8491,2.0218-8.7903,2.9815-3.4463,1.1245-6.9288,2.1389-10.3667,3.2877-2.6947.9004-5.3143,2.0313-8.0234,2.8809-3.3693,1.0566-6.8357,1.8089-10.1895,2.9082-5.5034,1.8039-10.9388,3.8141-16.4262,5.6682-1.9542.6603-3.9953,1.0601-5.9623,1.6869-1.9646.626-3.8795,1.4061-5.8279,2.0852-3.0963,1.079-6.2023,2.1302-9.3042,3.1931-3.923,1.3443-7.8377,2.7136-11.7718,4.0247-3.1898,1.0631-6.4223,2.0001-9.6008,3.0947-3.8412,1.3229-7.6302,2.7972-11.4693,4.1268-6.1122,2.1169-12.2496,4.1606-18.3698,6.2547-1.0651.3645-2.0921.8391-3.1463,1.2373-3.8769,1.4643-7.7517,2.9349-11.6393,4.3705-3.6747,1.357-7.0514,3.2759-10.4633,5.1812-6.4898,3.6239-13.1434,6.9532-19.6885,10.4799-5.0326,2.7116-10.0084,5.5289-14.9961,8.3231-.8308.4655-1.6037,1.0381-2.3846,1.5879-1.5542,1.0943-3.0602,2.2611-4.6519,3.297-1.5255.9928-3.1301,1.8651-4.7074,2.7775-3.292,1.9042-6.5984,3.7836-9.8803,5.7049-2.022,1.1837-4.0785,2.3302-5.9751,3.6943-.6573.4728-1.2502,1.57-1.2093,2.3472.0549,1.045,1.1527,1.3704,2.1975,1.3964.7764.0193,1.559.0603,2.3248.181,4.0151.6321,8.0242,1.3021,12.0383,1.941,4.793.7628,9.5708,1.6839,14.4655,1.4473.2487-.0121.5022.1294.7571.1818,3.295.6787,6.5702,1.4851,9.8905,2.0024,6.3364.9871,12.799.8444,19.1031,2.3325,3.6146.8532,7.3857,1.0502,11.0902,1.5116,1.5516.1932,3.1213.2487,4.6687.4666,4.0241.5667,8.0314,1.6004,12.0619,1.6883,5.4986.1199,10.869,1.1372,16.3112,1.59,1.7967.1495,3.555.7121,5.3472.9742,5.8931.8618,11.8802.9103,17.7059,2.4654,3.0709.8197,6.344.8815,9.5256,1.2866.6881.0875,1.3971.101,2.06.2819,4.0171,1.0964,8.069,1.9364,12.2348,2.2844,3.625.3028,7.23.8435,10.8435,1.2828.1717.0209.3371.0905.5086.1154,1.9651.2861,3.9275.5941,5.8974.8424,1.4642.1846,2.9503.2145,4.4056.4458,3.8606.6136,7.6995,1.369,11.5663,1.9361,3.7584.5512,7.5412.9349,11.3117,1.4048.3413.0425.6672.1957,1.0068.266,1.1797.2444,2.3531.5489,3.5455.6975,4.2101.5247,8.4275.9903,12.6405,1.4921.3404.0405.6627.2176,1.0029.2784,1.6173.2887,3.2337.5869,4.8586.8266,1.1149.1646,2.2824.093,3.3581.3815,3.0024.8052,5.9645,1.5141,9.1275,1.7024,4.8229.2872,9.614,1.1398,14.4118,1.8021,2.4871.3433,4.9601.7885,7.4374,1.2007.3387.0563.6611.2036.9972.2828,2.6624.6276,5.3099,1.3368,7.9956,1.8412,1.7824.3347,3.6453.2408,5.428.5747,3.129.5862,6.2005,1.499,9.3392,2.01,4.4222.7201,8.8798,1.164,13.268,2.1672,3.2846.7509,6.6727,1.0483,10.0139,1.5531.5149.0778,1.0309.1611,1.537.2813,3.6059.8564,7.1369,2.0759,10.9041,2.14.6787.0115,1.3498.2957,2.0303.4231,1.3607.2546,2.7201.5251,4.0896.7227,4.1226.5949,8.251,1.1496,12.3736,1.7446.5092.0735,1.0029.2792,1.4935.4528,2.468.8733,4.9733,1.3717,7.6181,1.5546,3.1053.2147,6.2344.737,9.2424,1.5408,3.611.9648,7.1921,1.8969,10.9405,2.1265,1.1019.0675,2.1834.4572,3.276.6906,2.3687.506,4.7247,1.0897,7.1113,1.4901,3.6706.6159,7.3627,1.1034,11.0451,1.6499.1705.0253.3329.1009.5021.1402,3.0135.7,6.0326,1.3762,9.04,2.1011,5.1542,1.2422,10.5288.8481,15.6802,2.2315,3.5056.9414,7.0907,1.6639,10.6839,2.1797,3.5131.5042,6.8513,2.0049,10.4937,1.7546,1.3506-.0928,2.4955.4598,3.5701,1.3407.6114.5012,1.5194.7604,2.3302.8783,4.1917.6097,8.4211.9917,12.5885,1.7296,6.3876,1.1311,12.7357,2.4857,19.0991,3.7531.5083.1012,1.0036.2662,1.5069.394,3.596.9127,7.1666,1.947,10.7954,2.7022,4.1383.8612,8.3639,1.3613,12.3642,2.7786,3.4872,1.2355,7.3425,1.4893,10.388,3.949,1.0224.8257,2.2378.795,3.4183.057.8012-.5008,1.7186-.8154,2.5228-1.3123,3.7578-2.3217,7.4462-4.7599,11.2536-6.9961,3.1237-1.8345,6.3996-3.4074,9.5728-5.1603,5.0097-2.7674,10.0041-5.5632,14.9765-8.3971,2.5604-1.4593,5.0747-3.0022,7.5788-4.5571,1.0965-.6809,2.0883-1.5288,3.1753-2.2268,2.4041-1.5436,4.8683-2.995,7.2539-4.5661,4.1253-2.7168,8.2182-5.4831,12.3059-8.2566,1.3591-.9221,2.6167-1.9973,3.9959-2.8858,4.2136-2.7143,8.542-5.2569,12.6843-8.0742,10.3188-7.0177,20.8657-13.6913,31.1421-20.7739,4.4129-3.0414,8.7223-6.2154,13.4406-8.8575,5.5928-3.1318,10.7669-7.0067,16.1642-10.4949,1.8817-1.216,3.9183-2.1898,5.8305-3.3618,3.5279-2.1621,7.0609-4.3216,10.506-6.6111,2.5268-1.6793,4.8714-3.6311,7.3795-5.3408,2.9272-1.9955,5.9382-3.8687,8.9233-5.7788,4.153-2.6574,8.272-5.3718,12.4852-7.9304,5.4736-3.3241,11.0265-6.4998,15.9072-10.7208,2.0273-1.7533,4.3222-3.2044,6.541-4.7266,1.503-1.0311,3.1043-1.9178,4.6238-2.9261.6825-.453,1.4787-.9101,1.4303-1.9162-2.9674-1.2062-5.91-1.7556-8.99-1.5792-1.3895.0796-2.7891-.0103-4.1776.0787-.9433.0605-1.8759.2943-2.812.4581-1.1785.2062-2.3479.5005-3.5349.6147-2.9368.2825-5.8953.374-8.8194.7454-3.7722.4791-7.52,1.6445-11.2769,1.6386-6.284-.01-12.4477,1.0029-18.6728,1.4313-5.1851.3569-10.2964,1.607-15.5443,1.2983-.5841-.0343-1.1834.2445-1.78.3548-1.4446.2671-2.8831.6649-4.3395.7532-5.1918.3148-10.3063,1.6398-15.5586,1.1888-.498-.0428-1.0159.2172-1.5311.2919-2.4012.3482-4.8045.683-7.2078,1.0168-.514.0714-1.0948-.0126-1.5361.2005-1.8012.8698-3.6979.844-5.6232.8294-1.2139-.0092-2.4328.1364-3.6433.2691-2.8373.3112-5.6692.6717-8.5066.9813-1.4705.1604-3.0434-.0245-4.4024.4386-2.6256.8947-5.3042.8222-7.9833.985-1.9078.1159-3.817.2206-5.7211.3832-2.1575.1843-4.3068.569-6.4652.617-5.2221.116-10.449.0187-15.6705.1474-2.3368.0576-4.519-.4409-6.5612-1.4054-1.8694-.8829-3.5703-2.1168-5.3749-3.1442-3.2735-1.8636-3.4741-7.5078-.5268-9.6691,2.7265-1.9994,5.1626-4.3992,8.4284-5.608,2.0215-.7483,3.9901-1.6428,5.9683-2.5042,1.5764-.6864,3.0965-1.5146,4.7027-2.1169,3.8048-1.4266,7.6534-2.7358,11.4705-4.1302,5.2773-1.9277,10.5411-3.8926,15.8125-5.8363,1.7787-.6559,3.5749-1.2656,5.3425-1.9495,2.6597-1.029,5.2812-2.1598,7.9582-3.1399,1.6133-.5906,3.3011-.9776,4.9554-1.4561-1.0248-.5594-2.037-.7851-3.0129-.6782-1.8826.2062-3.7447.6005-5.6153.9166-3.4993.5913-7.0209,1.0754-10.492,1.8014-4.0595.8491-8.2397.7662-12.2689,2.0538-2.8446.909-5.9653.9457-8.9571,1.4084-.7633.118-1.5036.381-2.2571.5666-.9239.2276-1.8438.4802-2.7777.657-1.698.3215-3.4186.5332-5.1044.906-1.763.3899-3.4775,1.2029-5.2464,1.3166-2.8824.1852-5.6471.8427-8.4538,1.384-2.8968.5587-5.839.8774-8.7472,1.3828-2.3001.3997-4.5896.8758-6.8638,1.4045-2.5273.5875-5.0161,1.3446-7.5497,1.8998-4.0488.8872-8.0887,1.9424-12.1914,2.4234-4.755.5575-9.1504,2.7443-13.983,2.8034-.4176.0051-.8289.2473-1.2491.3557-2.6739.6898-5.3472,1.382-8.0252,2.0554-2.002.5034-4.0181.9515-6.0148,1.4743-4.1593,1.0891-8.3128,2.2007-12.4623,3.3266-1.2499.3391-2.4619.8279-3.7205,1.1237-3.5211.8276-7.0716,1.5326-10.5846,2.392-4.9412,1.2088-9.8615,2.5038-14.7852,3.7832-1.1737.3049-2.3097.7634-3.4901,1.0319-4.3807.9965-8.7734,1.9397-13.16,2.9099-2.1918.4848-4.4678.7546-6.5452,1.544-1.9778.7516-3.9356.7389-5.9071.621-2.6868-.1608-4.5944-2.6916-4.125-5.2672.2609-1.4316,1.1777-2.3825,2.3316-3.2883,2.7463-2.1559,5.8398-3.7083,8.8632-5.3743,2.8005-1.5432,5.6613-3.0002,8.5873-4.2865,3.1506-1.3851,6.4126-2.5156,9.6154-3.7838.8029-.318,1.5434-.7963,2.3502-1.1013,3.9618-1.4974,7.9305-2.977,11.9082-4.4315,2.9231-1.0688,5.8609-2.0983,8.798-3.1285,2.685-.9417,5.386-1.8385,8.0653-2.796,2.841-1.0153,5.6412-2.1495,8.5019-3.1038,3.9255-1.3096,7.8924-2.4947,11.8387-3.742,1.3195-.417,2.6205-.8945,3.947-1.2866,3.2321-.9553,6.483-1.8473,9.7098-2.82,3.5552-1.0717,7.0815-2.2396,10.6397-3.3008,2.9782-.8881,5.9995-1.633,8.9704-2.5436,1.1667-.3576,2.248-.9934,3.6924-1.6499-.7068-.293-1.007-.4941-1.329-.5388-2.4746-.344-4.9825-.5163-7.4232-1.0184-2.7022-.556-5.3248-1.4902-8.0176-2.1038-2.9542-.6732-5.9572-1.1295-8.9242-1.7511-4.0153-.8412-7.6847.8442-11.4542,1.6027-3.7992.7645-7.5031,2.008-11.2409,3.0692-1.4134.4012-2.7841.9676-4.2108,1.3032-2.3443.5515-4.7474.8666-7.0736,1.4791-3.9102,1.0296-7.7834,2.2016-11.6641,3.3413-1.2442.3654-2.452.854-3.6951,1.2237-4.8166,1.4324-9.636,2.8558-14.4641,4.2492-2.3311.6727-4.6856,1.2636-7.0257,1.9054-2.6503.7269-5.2954,1.4722-7.9443,2.2044-1.9917.5505-3.9764,1.1304-5.9813,1.6286-2.0964.5209-4.2312.8924-6.3166,1.451-2.7433.7348-5.4533,1.5938-8.1805,2.3893-1.578.4603-3.173.8655-4.7407,1.3578-3.3651,1.0565-6.7168,2.1553-10.0753,3.233-3.4402,1.104-6.8899,2.1791-10.3203,3.3124-2.9577.9771-5.8581,2.1431-8.8472,3.0061-7.2331,2.0882-14.459,4.1857-21.5396,6.761-2.7628,1.0049-5.5741,1.8776-8.3711,2.7865-4.4997,1.4623-9.0056,2.9057-13.5096,4.3547-1.8038.5803-3.5964,1.2002-5.4176,1.72-2.5708.7336-5.1602,1.4033-7.7475,2.0777-2.7599.7193-5.3792.4295-7.646-1.3962-1.6105-1.2971-1.6004-2.9999.069-4.1173,1.7158-1.1484,3.5533-2.128,5.3927-3.0741,1.1478-.5903,2.4076-.9589,3.6001-1.4668,3.4208-1.4569,6.823-2.9578,10.2514-4.3965,3.504-1.4705,7.0185-2.9177,10.5524-4.3145,1.5193-.6005,3.0877-1.0854,4.6535-1.5576,3.6315-1.0951,7.2992-2.0755,10.9059-3.2456,2.9597-.9603,5.8295-2.1958,8.7806-3.1855,3.8551-1.2929,7.7694-2.4094,11.6253-3.7001,5.4155-1.8128,10.7678-3.8198,16.2094-5.5475,4.3582-1.3837,8.8082-2.4787,13.2193-3.695,4.8485-1.3369,9.7025-2.6541,14.5454-4.0113.7049-.1976,1.6081-.3211,1.4612-1.7477-.7329-.1624-1.5351-.4392-2.3541-.5044-3.375-.2688-6.7545-.4821-10.1335-.6999-6.6054-.4256-13.2062-.4641-19.7965.2674-2.2445.2491-4.4911.4802-6.734.7433-2.2388.2627-4.4725.5692-6.7117.8282-.9491.1098-1.9133.098-2.8592.2261-5.6598.7662-11.3157,1.5606-16.9742,2.3365-1.1136.1527-2.2356.2441-3.3485.4013-1.8004.2543-3.5941.557-5.3955.8038-.7721.1058-1.5748.0351-2.332.1947-3.3817.7124-6.7477,1.4992-10.1278,2.2191-2.5381.5405-5.1028.9606-7.6307,1.5426-2.8618.6589-5.6895,1.4643-8.5437,2.158-2.1734.5283-4.3787.9284-6.545,1.4826-2.4136.6174-4.7823,1.4138-7.2017,2.0048-2.5221.6161-5.0909,1.0389-7.622,1.6215-3.0347.6984-6.0472,1.4932-9.0768,2.2145-2.4496.5832-4.9318,1.0403-7.3611,1.6957-3.4173.922-6.7935,1.9953-10.1984,2.965-1.6672.4748-3.3508.9-5.0422,1.2797-2.5349.569-5.1163.9572-7.6179,1.6417-3.5754.9784-7.0931,2.1661-10.6423,3.2419-1.5733.4769-3.1539.9359-4.7477,1.3373-2.8333.7136-5.6928,1.3257-8.5162,2.0752-3.2618.8659-6.4969,1.8325-9.7425,2.7594-1.1539.3296-2.2977.6969-3.4581,1.0009-2.0064.5257-4.0175,1.0349-6.0353,1.5148-2.2717.5402-4.5797.9456-6.8237,1.5803-3.3983.9611-6.734,2.1443-10.1348,3.0957-3.911,1.0942-7.8942,1.9352-11.79,3.0775-3.8053,1.1157-7.4759,1.204-11.1904-.3477-1.0522-.4396-1.686-1.0065-1.5551-2.0683.1324-1.0741.3394-2.2272.8609-3.1493,1.9462-3.4408,5.1247-5.746,8.3623-7.6938,6.8299-4.109,13.8507-7.9111,20.8881-11.6611,4.0484-2.1573,8.2872-3.9565,12.4311-5.936,2.6416-1.2619,5.2485-2.5975,7.9031-3.8307,3.7642-1.7486,7.5499-3.4517,11.3416-5.14,3.6235-1.6134,7.2426-3.2406,10.9086-4.7528,2.7054-1.1159,5.4927-2.0315,8.2261-3.0817,3.707-1.4242,7.3917-2.9063,11.0969-4.3352,2.334-.9001,4.7002-1.7174,7.03-2.628,2.6524-1.0367,5.2618-2.1845,7.9232-3.1964,4.033-1.5335,8.0773-3.041,12.1486-4.4691,5.2149-1.8292,10.5112-3.4392,15.6668-5.4187,1.7483-.6713,3.8254-1.0554,5.1028-2.6934ZM413.1826,29.3575c-.0647-.2435-.1294-.4871-.1941-.7307-2.7651-.5933-5.5157-1.2699-8.2993-1.7576-3.0683-.5376-6.1774-.8402-9.2497-1.3583-3.3233-.5604-6.6036-1.4123-9.9403-1.8491-5.4168-.7091-10.8736-1.1108-16.2948-1.791-2.3421-.2939-4.4738-.0172-6.5574,1.0645-1.7685.9182-3.5195,1.9584-5.402,2.5527-5.8609,1.8503-11.7757,3.5311-17.6815,5.2364-1.1617.3354-2.3843.7191-3.5654.6795-3.5698-.1197-6.7674,1.4612-10.1835,2.0254-2.9781.4919-5.8787,1.4813-8.8627,1.9033-4.5487.6433-9.1423.9652-13.711,1.4755-.9309.104-1.8319.4562-2.7539.6611-2.5137.5586-5.0332,1.0911-7.5462,1.6527-.8384.1874-1.6911.361-2.4896.6659-1.288.4918-2.5363,1.0879-3.8019,1.6386-5.2252,2.2733-10.523,4.395-15.6575,6.8572-6.4596,3.0976-12.7782,6.4883-19.1717,9.7248-5.7025,2.8868-11.4511,5.6837-17.1305,8.6151-7.0626,3.6454-14.0867,7.3663-21.1032,11.1001-2.752,1.4645-5.4308,3.0658-8.157,4.5795-2.0405,1.1329-4.1289,2.1817-6.1443,3.3567-.8237.4802-1.8221.8842-2.3823,2.4188,1.3536-.2348,2.3413-.3557,3.3006-.5916.5784-.1422,1.0973-.6228,1.6694-.678,3.6878-.3558,6.8952-2.2245,10.3774-3.2198,3.238-.9255,6.4352-1.9947,9.6779-2.9022,2.1606-.6047,4.4104-.9059,6.5484-1.5733,4.4551-1.3908,8.8597-2.9427,13.2903-4.4128,4.5005-1.4933,9.0046-2.9758,13.5121-4.4479,3.0355-.9913,6.0722-1.9802,9.1216-2.9274,4.374-1.3585,8.7626-2.6702,13.1404-4.0164,3.631-1.1166,7.2488-2.2761,10.8848-3.3761,3.3069-1.0004,6.6334-1.9356,9.9454-2.9195,2.4013-.7134,4.7927-1.4602,7.1889-2.1904,1.5741-.4797,3.1581-.9287,4.7217-1.4405,3.2689-1.07,6.511-2.224,9.7946-3.2458,2.8006-.8715,5.6488-1.5888,8.4656-2.4099,1.3166-.3838,2.5886-.9331,3.9166-1.2629,2.2542-.5598,4.5556-.9323,6.8031-1.515,3.8419-.9961,7.6348-2.187,11.4896-3.1265,5.4552-1.3296,10.9372-2.556,16.4281-3.7312,4.6482-.9949,9.3256-1.8526,13.989-2.7771.4249-.0843.8393-.2201,1.2618-.3185,2.8665-.6673,5.7097-1.4777,8.6076-1.9559,3.1193-.5148,6.2997-.6479,9.4363-1.0736,3.6918-.5011,7.3699-1.1104,11.0419-1.7429.5879-.1012,1.1128-.5683,1.6668-.8662ZM556.7338,34.5203c1.2484,1.5091,2.7418,1.8235,4.2834,2.0151,1.2075.15,2.5288-.0021,3.6098.442,3.8345,1.5755,8.1827.1882,11.9118,2.1869.0691.0371.173.0036.2584.0169,3.1574.4901,6.3724.7519,9.4575,1.5293,4.2122,1.0614,8.6795.4156,12.773,2.0897.2281.0933.5194.021.778.0521,3.6905.4448,7.3793.9045,11.071,1.3394,3.5202.4147,7.0432.805,10.5652,1.2051.6017.0684,1.2169.0748,1.8034.2086,2.4435.5574,4.8506,1.3696,7.3226,1.6852,4.1135.5253,8.2717.669,12.3399,1.5959,3.1897.7268,6.3831,1.4791,9.6879,1.4916.2507.0009.4982.1491.7516.2109,2.5923.6325,5.156,1.5327,7.7864,1.8197,3.0166.3292,6.0194.5252,8.971,1.3438,1.4.3883,2.9431.2258,4.392.48,3.833.6725,7.5128,2.1522,11.4766,2.1622.4163.0011.8268.2506,1.2489.3449,1.1753.2624,2.3548.5066,3.5336.7528,1.4321.2991,2.86.6233,4.2995.8819,2.1906.3935,4.3447.8885,6.5024,1.4647,2.901.7746,5.9512.9869,8.9333,1.4658.5103.0819.9935.3194,1.5007.4351,3.28.748,6.5617,1.4887,9.8462,2.2165.843.1868,1.6975.3216,2.5476.4756,3.0633.555,6.13,1.0915,9.1894,1.667,2.4665.464,4.9465.885,7.3797,1.4893,2.3209.5764,4.5599,1.49,6.8869,2.0332,4.2955,1.0027,8.6471,1.7658,12.942,2.771,4.8889,1.1443,9.727,2.5045,14.6131,3.6616,6.3849,1.512,12.5709,3.7412,19.0104,5.0738,4.7045.9736,9.1584,2.8166,14.009,3.4924,5.534.771,10.9239,2.577,16.3761,3.9346,2.1187.5276,4.0067.0382,5.921-1.0811-.8881-1.8791-2.0948-3.0475-3.643-3.9359-4.9734-2.8536-10.4237-4.5598-15.7459-6.5714-1.1936-.4512-2.4291-.8226-3.6741-1.1018-4.3056-.9658-8.6277-1.8575-12.9346-2.8171-1.0888-.2426-2.1343-.6742-3.2178-.9473-2.6763-.6747-5.3667-1.2929-8.0443-1.9627-2.009-.5026-3.9911-1.1226-6.0133-1.5604-2.8603-.6193-5.7474-1.1148-8.6207-1.6748-.3389-.0661-.6582-.2292-.9961-.3056-1.1741-.2654-2.3507-.5211-3.53-.7625-.5897-.1207-1.1981-.1606-1.7795-.3094-2.582-.6611-5.1491-1.3823-7.7375-2.0165-2.4302-.5955-4.8844-1.0919-7.3208-1.6633-2.7707-.6497-5.5136-1.4362-8.3048-1.9755-2.9568-.5714-5.9567-.9198-8.9365-1.3735-.2555-.0389-.5004-.1427-.7526-.2071-2.7543-.7037-5.4811-1.5579-8.2709-2.0681-3.2308-.5909-6.5172-.8782-9.7791-1.2993-.6025-.0778-1.2926-.0028-1.7902-.2757-2.0116-1.1029-4.2376-.8337-6.3704-1.1477-2.9123-.4288-5.8312-.8189-8.734-1.3045-1.9499-.3261-3.9767-.5383-5.7863-1.26-1.8524-.7387-3.7147-.7543-5.5988-.9388-1.124-.1101-2.266-.1139-3.3717-.3179-4.6064-.8499-9.1224-2.2438-13.8726-2.2185-.5013.0027-1.0002-.2604-1.5068-.37-1.2615-.2728-2.5164-.6085-3.7927-.7752-3.6802-.4807-7.37-.8875-11.0546-1.3345-.253-.0307-.4898-.1784-.7426-.2302-1.2602-.2581-2.5391-.7748-3.7825-.7027-4.6707.2708-9.1186-1.1453-13.6774-1.6726-5.2275-.6046-10.3097-2.3375-15.6608-2.154-.4268.0146-.8578-.1259-1.2886-.1809-2.9192-.3733-5.8385-.7459-8.7586-1.1121-.9436-.1184-1.8951-.1828-2.8334-.3321-1.6971-.2701-3.3806-.6324-5.0819-.8682-1.5399-.2134-3.0994-.2811-4.6439-.4667-1.1111-.1335-2.2054-.4421-3.3179-.521-3.2056-.2273-6.4225-.31-9.6235-.5828-2.0704-.1765-4.1149-.6388-6.1822-.876-1.6383-.1879-3.2945-.2136-4.9409-.3373-3.5467-.2666-7.0912-.5662-10.6395-.8063-.4564-.0309-.9312.2117-1.626.3845ZM573.07,445.8334c.2726-.0956.5452-.1913.8178-.2869-.0434-.8228.0215-1.6684-.1469-2.4647-1.6425-7.7669-.4071-15.7646-1.9958-23.5656-.6302-3.0952-.1113-6.4113-.2625-9.6199-.3023-6.4152.4922-12.8875-.9874-19.245-.1355-.5823-.0658-1.214-.0788-1.823-.1363-6.3525-.2648-12.7051-.4128-19.0573-.014-.6012-.1384-1.2008-.2257-1.7991-.1861-1.2743-.4892-2.5422-.5478-3.8217-.0874-1.9095.0639-3.8293-.0072-5.7404-.3169-8.5123-.673-17.0232-1.024-25.5343-.1005-2.4371-.5705-2.7365-2.9352-2.983-4.1322-.4307-8.246-1.0421-12.3635-1.6071-1.8046-.2476-3.5908-.6563-5.4008-.8327-2.4196-.2358-2.9299.521-2.3237,2.8966.6419,2.5156,1.2665,5.0436,1.7147,7.5985.5358,3.0545.8743,6.1435,1.3058,9.2165.0358.2556.1308.5028.1956.7546.7295,2.8314,1.5288,5.6472,2.1682,8.4989.6625,2.9546,1.1769,5.9425,1.7429,8.9185.3553,1.8684.6089,3.7597,1.0458,5.6082.7159,3.0286,1.5754,6.023,2.3144,9.0464.597,2.4428,1.0967,4.9091,1.6559,7.3613,1.053,4.6168,2.1202,9.2303,3.1767,13.8462.4796,2.0954.8999,4.2058,1.4334,6.2872.6417,2.5027,1.4484,4.9642,2.0529,7.4751,1.0318,4.2857,1.823,8.6334,2.9703,12.8862,1.3727,5.088,2.978,10.115,4.5681,15.1414.3197,1.0106,1.023,1.8999,1.5495,2.8451ZM573.7732,254.6375c-1.9941-.6444-3.5192-1.1758-5.0674-1.6279-1.986-.5799-3.9787-1.1469-5.9906-1.6261-2.0981-.4997-4.4152-.4974-6.2886-1.4207-2.5762-1.2697-5.3562-1.3668-8.0058-2.0666-3.3311-.8797-6.8516-1.0367-10.2861-1.5356-.5934-.0862-1.1607-.3399-1.748-.4844-.9192-.2261-1.8396-.4549-2.7693-.6297-2.5379-.4774-5.2766-.4826-7.5753-1.4939-3.2891-1.4472-6.8282-.8938-10.1445-2.0493-2.9817-1.0389-6.2569-1.2151-9.3827-1.8674-2.6189-.5466-5.187-1.3547-7.8173-1.8247-3.6541-.6529-7.3648-.9916-11.0157-1.6589-4.6726-.854-9.1977-2.5837-14.0632-2.2656-.32.021-.6501-.2184-.9847-.2979-2.5811-.613-5.1467-1.3111-7.7516-1.7987-3.2395-.6064-6.6545-.6147-9.7328-1.6541-3.5009-1.1819-7.145-.9137-10.6596-1.9105-3.5377-1.0035-7.3349-1.0869-11.0142-1.6031-.5066-.0711-.9816-.3426-1.4842-.4707-2.5095-.6392-4.9965-1.4192-7.5421-1.852-3.6557-.6216-7.3633-.9309-11.0338-1.474-4.4593-.6598-8.9071-1.4009-13.3527-2.1495-5.1279-.8635-10.2495-1.7642-15.3707-2.6668-3.5838-.6317-7.142-1.4654-10.7491-1.8917-3.3328-.394-6.4461-2.0861-9.9178-1.5989-.3881.0545-.821-.2206-1.2349-.3369-.9866-.2774-1.9583-.6671-2.9642-.8048-2.9985-.4106-6.0183-.6666-9.0157-1.0837-5.574-.7758-11.1342-1.651-16.7083-2.4262-2.1451-.2983-4.3182-.3915-6.4676-.6635-1.5295-.1935-3.0358-.723-4.5615-.7638-3.5058-.0937-6.8668-.8622-10.2123-1.7867-2.5735-.7112-5.3812-.3828-7.8041-1.7603-2.3026.7035-4.4242-.4186-6.6321-.6644-2.935-.3267-5.8748-.6304-8.7957-1.0591-4.1896-.6148-8.3562-1.3864-12.547-1.9916-3.5904-.5185-7.2031-.88-10.8005-1.3529-.6809-.0895-1.3292-.4045-2.0047-.5636-.6703-.1579-1.3518-.2893-2.0358-.3655-4.9126-.5473-9.8276-1.0729-14.7398-1.6235-.3362-.0376-.6476-.2636-.9847-.3312-1.0926-.2192-2.1861-.4494-3.2899-.5943-1.7146-.225-3.4454-.3327-5.155-.587-1.1895-.1769-2.3425-.6146-3.5333-.7649-3.9447-.4979-7.8994-.9158-11.8492-1.3731-.3434-.0398-.6763-.1646-1.0192-.2142-1.88-.2719-3.7597-.5478-5.6436-.7911-.9454-.1221-1.9073-.1271-2.8481-.2728-3.6785-.5699-7.3423-1.2426-11.029-1.7501-5.0727-.6983-10.1604-1.2872-15.2435-1.9083-.8611-.1052-1.8515.1107-2.5772-.2427-4.3106-2.0991-9.0936-1.9108-13.6247-2.9135-4.7314-1.047-9.5511-1.6926-14.3286-2.534-2.2064-.3886-4.3981-.862-6.6077-1.2297-1.9668-.3272-3.9636-.4848-5.9207-.8561-2.6282-.4986-5.2133-1.2378-7.8495-1.6783-3.307-.5526-6.7165-.6243-9.9556-1.4185-4.1345-1.0138-8.304-1.6023-12.5081-2.1083-4.0279-.4848-8.0334-1.1852-12.0702-1.5588-5.3583-.4959-10.437-2.7048-15.8972-2.5011-.1667.0062-.3349-.0907-.5057-.1212-3.7516-.6691-7.5009-1.3513-11.2573-1.9924-1.022-.1744-2.0576-.1985-2.8177.8011,1.0311,1.6253,2.6492,2.0025,4.2545,2.3682,2.0287.4621,4.1113.7351,6.0945,1.3396,4.9871,1.5201,10.0417,2.6723,15.2182,3.2948.8614.1036,1.7261.2199,2.5713.4102,2.9418.6622,5.8746,1.3644,8.8138,2.038.4225.0969.8668.0955,1.2924.1821,2.871.5842,5.7389,1.1833,8.6093,1.7705,2.3763.486,4.7425,1.0371,7.1349,1.4253,3.6647.5947,7.3645.9821,11.019,1.629,3.4725.6147,6.8955,1.505,10.3601,2.1707,2.8805.5534,5.7904.953,8.6857,1.4303.4275.0705.8492.1835,1.2685.2956,4.6081,1.2321,9.1812,2.611,13.9968,2.8663.835.0443,1.6552.4871,2.4683.7837.5647.206,1.084.5835,1.661.7011,2.8726.5855,5.7685,1.059,8.6357,1.6687,4.0473.8607,8.0663,1.8314,12.1952,2.2908,1.6094.179,3.1657.8075,4.7572,1.185,1.005.2384,2.0235.4467,3.0478.5713,2.4057.2926,4.8292.4548,7.2252.8073,1.9594.2882,3.8866.7908,5.8341,1.1667.8475.1636,1.717.2131,2.565.3748,2.895.552,5.7625,1.3372,8.6816,1.6539,5.0598.549,10.0728,1.249,15.0688,2.267,3.1968.6514,6.495.7147,9.7426,1.4197,5.3174,1.1545,10.7624,1.7218,16.1537,2.536,2.9933.4521,5.9882.8946,8.9791,1.3622.5067.0792.9929.282,1.4957.3962.9158.2079,1.8284.47,2.7574.5714,2.4981.2727,5.0323.3094,7.5013.735,5.2881.9116,10.5298,2.0932,15.8188,2.9992,3.1349.5371,6.4131.0792,9.4624,1.3578.5253.2202,1.2077.0405,1.8105.1078.6819.0762,1.3582.2113,2.0331.3409,1.2634.2425,2.5149.5709,3.788.735,2.3232.2994,4.6831.3677,6.9834.7798,4.1432.7421,8.2508,1.682,12.4717,1.9176.426.0238.8432.1844,1.2671.2693,2.9641.5936,5.9105,1.3131,8.8988,1.7367,2.642.3746,5.3035.2238,7.9624.9952,2.9515.8563,6.125.5453,9.1878,1.4558,3.7799,1.1237,7.7638,1.6441,11.6949,2.1512,3.5997.4643,7.2071.6689,10.7639,1.5949,2.7958.7278,5.7511.8447,8.6365,1.2255,3.6953.4877,7.3919.9661,11.087,1.4545.3425.0453.683.1193,1.0181.2045,3.1843.8086,6.3484,1.7094,9.5567,2.4071,2.5424.5529,5.1411.8426,7.7096,1.28,1.6088.274,3.2065.6119,4.8118.9073.5945.1093,1.2001.1586,1.7941.2703,1.8592.3497,3.7075.7659,5.5754,1.0586,1.2828.201,2.615.1197,3.8837.3726,4.0576.8086,8.1602,1.1793,12.2757,1.4908,2.0744.1569,4.2747.0466,6.1805.7245,3.2411,1.1531,6.6537.9201,9.9281,1.8159,4.803,1.314,9.8807,1.2439,14.7226,2.6651,3.9593,1.1622,8.162,1.2324,12.2045,2.2791,3.4939.9046,7.201.9954,10.8175,1.4143,4.5619.5284,9.1277,1.0226,13.6911,1.5382.3441.0389.6805.1416,1.0235.1957,4.1056.6478,8.2098,1.3048,12.319,1.9293,1.2026.1827,2.4299.2105,3.6284.413,3.7452.633,7.4696,1.3984,11.2254,1.9557,3.7737.5599,7.5735.9485,11.3657,1.3784,1.7243.1955,3.4922.1483,5.1773.5071,1.6069.3421,2.6056-.2917,3.9238-1.5347ZM104.5426,252.8181c-3.1825.1778-4.036.9897-4.2154,4.1484-.0542.9536.1509,2.059-.2614,2.8273-.9217,1.7176-.8907,3.5074-.969,5.3269-.0221.5148-.1702,1.0251-.2708,1.5354-.3156,1.5999-.6585,3.1948-.9451,4.7998-.1371.7679.0451,1.6677-.2926,2.3107-.9848,1.8752-.9204,3.8527-.9312,5.8515-.0033.6041.0416,1.3-.2275,1.7952-1.1023,2.0283-.8647,4.2214-.9653,6.3793-.0526,1.1287-.0452,2.2685-.2083,3.3823-.7253,4.9521-1.5408,9.891-2.2477,14.8456-.4899,3.4334-.8535,6.8847-1.2831,10.3269-.0319.2552-.1563.4975-.2115.7515-.2738,1.2597-.6218,2.5102-.7917,3.7843-.5602,4.2025-1.05,8.4143-1.5834,12.6204-.0428.3373-.2405.6521-.3171.9885-.2288,1.0059-.5087,2.0081-.6322,3.0283-.3109,2.568.04,5.2204-1.1159,7.6829-.2421.5158-.0902,1.2049-.184,1.8041-.24,1.5329-.526,3.0585-.7742,4.5901-.1384.8541-.4064,1.7306-.3264,2.5693.3553,3.7237-1.4776,7.0929-1.6586,10.738-.0535,1.0778-.6976,2.0996-.2078,3.2728.1781.4266.025,1.0147-.0486,1.5186-.1994,1.3657-.4363,2.7258-.66,4.0879-.2383,1.4511-.4919,2.9-.7139,4.3536-.1833,1.1994-.3516,2.4021-.4862,3.6078-.0963.8626-.0261,1.7535-.2027,2.5957-.6711,3.2018-1.5288,6.3685-2.095,9.5873-.584,3.3204-.9336,6.6835-1.3322,10.0343-.1019.8565-.1613,1.7817.0635,2.5909.1465.5274.8789,1.3122,1.2842,1.2751,1.8049-.1655,3.5957-.5452,5.368-.9504.3196-.0731.5762-.6021.7808-.9662.8367-1.489.7805-3.0944.8618-4.7624.112-2.2978,1.3311-4.6004,1.1797-6.8402-.3297-4.8765,1.956-9.3636,1.6752-14.1776-.0143-.2456.0655-.5506.2125-.7429.9833-1.286.8054-2.7968.8965-4.2644.0427-.688.1655-1.374.2934-2.0532.2686-1.4267.6992-2.8371.8184-4.2746.1923-2.3192-.2095-4.7086,1.1714-6.8408.2581-.3986.1807-1.0147.2572-1.5306.242-1.6334.5147-3.263.719-4.9012.5478-4.3917,1.0662-8.7871,1.5964-13.1811.0727-.6027.0221-1.2552.2404-1.7997,1.2962-3.2338,1.9927-6.5778,2.122-10.0585.0605-1.6285-.0764-3.2887,1.0248-4.7571.3552-.4736.3252-1.3622.2303-2.0266-.5576-3.9028,1.4066-7.4645,1.472-11.2772.0041-.2411.2281-.4704.2894-.72.2244-.9127.6321-1.8398.5969-2.7469-.1899-4.897,1.4435-9.5642,1.7663-14.4114.1192-1.7902.8319-3.6485.8961-5.5589.0193-.5743.3874-1.1328.5699-1.7068.1817-.5715.4088-1.1437.4817-1.7322.5111-4.1251.9846-8.255,1.48-12.3821.0412-.3428.1644-.6749.2337-1.0152.654-3.2101,1.4263-6.4028,1.9065-9.6387.2541-1.7122.2955-3.3929,1.022-5.0526.8551-1.9533.2501-2.9638-1.8756-3.7317-1.1218-.4052-2.3149-.6128-3.4759-.9096ZM509.9562,263.4082c.0574-.2526.1148-.5053.1722-.758-.4242-.3503-.8341-.9808-1.275-1.0032-2.1045-.107-4.0389-.9278-6.0526-1.2897-3.3082-.5946-6.7039-.7786-10.0721-.9397-2.687-.1285-5.4028-.133-8.0795.1037-5.7058.5046-11.395,1.199-17.0904,1.8206-4.8151.5254-9.6295,1.0571-14.4438,1.5889-.1722.019-.3399.0761-.5116.1027-1.8756.2904-3.7451.6362-5.6296.8487-1.5518.1749-3.1432.0564-4.6792.3038-3.9245.6321-7.8274,1.3981-11.7401,2.1045-.5989.1082-1.2052.1752-1.8054.2769-4.2566.7217-8.5101,1.4628-12.7696,2.1671-3.2363.5352-6.4885.9778-9.7184,1.5479-3.7444.6609-7.4591,1.4988-11.213,2.0936-1.7116.2712-3.0949.8731-4.2638,2.2098,1.395,1.2086,2.854,1.7488,4.5954,1.7514,1.8172.0026,3.6404.1518,5.4492.3459,1.5359.1647,3.051.5159,4.5836.7226.7721.1041,1.6795-.1701,2.324.1427,2.3657,1.1482,4.962.9573,7.3971,1.1175,5.3811.3541,10.7181.7955,15.9707,2.0553,1.4097.3381,2.7155.2701,3.8992-.8048.5514-.5007,1.3486-.8109,2.0876-1.0118,4.1707-1.1341,8.2747-2.5729,12.6559-2.7803.8561-.0405,1.7004-.3504,2.5484-.5436,4.217-.9611,8.4132-2.0288,12.6563-2.8557,3.5732-.6964,7.1986-1.1291,10.8049-1.6501,2.6546-.3834,5.3168-.714,7.9731-1.0857.4261-.0596.8394-.2111,1.2588-.3194,1.3335-.3445,2.6738-.6644,3.9989-1.0384,2.1594-.6094,4.3086-1.2546,6.4625-1.8834,1.658-.484,3.3136-.9769,4.9766-1.4431.6673-.1869,1.3507-.3173,2.0286-.4651,1.4239-.3106,2.8446-.6384,4.275-.9158,1.0686-.2072,2.1503-.3462,3.2261-.5157ZM793.3354,199.1489c-2.3251,1.3225-4.4366,2.4762-6.4957,3.7169-.8858.5338-1.688,1.2182-2.4831,1.8876-1.0314.8684-1.2966,1.795-.7496,3.2115.8685,2.249,1.4222,4.6274,2.0032,6.9772.5994,2.4248,1.0479,4.8865,1.6074,7.3217.5818,2.5318,1.2787,5.0383,1.8151,7.5792.8218,3.8932,1.5298,7.8101,2.3237,11.7094.4823,2.3686,1.0514,4.7193,1.5534,7.084.7158,3.3725,1.6841,6.7224,2.0283,10.1341.3397,3.3675.9662,6.6511,1.6556,9.9428.1414.675.0256,1.4278.2649,2.0544,1.2123,3.1746,1.3194,6.5626,1.983,9.8409.4619,2.2818.7845,4.5916,1.2026,6.8828.4347,2.3831.934,4.7546,1.3602,7.1392.4996,2.7957.9106,5.6076,1.433,8.3988.6987,3.7327,1.4855,7.4488,2.2,11.1786.49,2.5575.6433,5.2208,1.4722,7.6583.5993,1.7622.7635,3.5222,1.1602,5.273.4473,1.9743,1.4543,3.8293,2.2966,5.7008.1966.4368.6608.8121,1.0885,1.0751,1.4554.8954,2.5196.4356,2.8815-1.2134.0918-.4182.1545-.8709.0974-1.2895-.7274-5.3248-1.4819-10.6459-2.2228-15.9689-.1908-1.3711-.3518-2.7463-.5385-4.118-.1052-.773-.1128-1.587-.3744-2.3061-1.2236-3.363-1.6871-6.8589-1.9808-10.3939-.0718-.8642-.1655-1.73-.3134-2.584-.5138-2.9662-1.0728-5.9247-1.5822-8.8917-.4529-2.6373-.8134-5.2912-1.3052-7.9209-.5255-2.809-1.3038-5.577-1.7113-8.4005-.8161-5.6552-1.3748-11.3475-2.1969-17.0017-.4913-3.3786-.7967-6.7787-1.5124-10.1406-.5523-2.5938.0119-5.3968-1.2878-7.9074-.1454-.2809-.0631-.679-.0887-1.0226-.1089-1.4603-.1787-2.9249-.3374-4.3798-.2255-2.0659-.3247-4.1724-.8225-6.1759-.8402-3.3801-1.4011-6.7413-.894-10.2232.0346-.237-.1349-.4995-.1896-.7543-.9088-4.2395-1.81-8.4807-2.7301-12.7178-.0693-.3192-.269-.6101-.6103-1.3562ZM656.0242,103.154c.0779.2061.1559.4122.2338.6184,1.1608.0166,2.3216.0518,3.4823.0466,3.6524-.0164,7.3113.0788,10.9554-.1087,3.8032-.1956,7.5911-.6803,11.3877-1.017,2.4097-.2137,4.8374-.2816,7.2306-.6084,2.5692-.3508,5.0917-1.0537,7.663-1.3748,3.1852-.3977,6.4033-.5238,9.5998-.8408,1.6313-.1618,3.2388-.5805,4.8708-.7118,2.5004-.2012,5.0144-.2275,7.5186-.3904.5857-.038,1.1502-.3447,1.7332-.4935.6645-.1697,1.332-.3634,2.0101-.4382,2.6599-.2932,5.3253-.5371,7.9874-.8113,4.0269-.4147,7.9766-1.264,12.0731-1.3851,5.9651-.1763,11.9125-.9794,17.8639-1.551.9623-.0924,2.1008.193,3.028-1.1867-.9692-.4148-1.7755-.8468-2.6335-1.1093-1.8068-.5526-3.6494-.9882-5.46-1.5291-.8275-.2472-1.5963-.6905-2.4232-.9409-3.3755-1.0219-6.8073-1.8766-10.1336-3.0361-3.2985-1.1498-6.586-2.0228-10.1186-2.0967-2.412-.0505-4.8077-.6418-7.2229-.8518-1.541-.134-3.2506-.4139-4.623.0877-2.0465.7479-4.0808.716-6.1459.8585-.7762.0536-1.5804.0339-2.319.2385-2.4902.6899-4.9445,1.5103-7.4362,2.1947-2.1675.5953-4.389.9979-6.5463,1.6249-2.2333.6491-4.4059,1.5038-6.6262,2.2017-5.009,1.5745-10.0395,3.0805-15.0437,4.6699-2.3004.7307-4.503,1.9069-6.8491,2.3261-4.3042.7691-8.095,2.9434-12.2557,4.0679-.6893.1863-1.2051,1.0148-1.801,1.5466ZM451.8826,283.1263c1.3939.3988,2.565.8769,3.7803,1.0572,5.7245.8496,11.4707,1.5558,17.1895,2.4403,2.8999.4485,5.7491,1.215,8.6377,1.7486,2.9729.5492,5.9672.9816,8.9483,1.4876.4217.0716.8164.2893,1.2326.408,2.4141.6885,4.7603.6293,7.0379-.5612,2.8275-1.478,5.68-2.9079,8.5196-4.3627,6.0859-3.1178,12.2215-6.1439,18.2326-9.4,2.7542-1.4919,5.2622-3.4381,7.9189-5.2028-1.8567-2.4697-4.2631-2.6125-6.3269-1.7384-1.8385.7787-3.6145.9636-5.4961,1.188-2.661.3174-5.3403.6713-7.934,1.3204-4.2718,1.0691-8.5424,2.2111-12.6976,3.6561-3.3035,1.1488-6.5669,1.9526-10.0922,2.0402-3.4596.086-6.906.6697-10.3602,1.0152-2.9358.2937-5.8916.4418-8.8072.8682-3.3271.4866-6.6291,1.1638-9.9242,1.8442-3.0411.6279-6.0319,1.5237-9.1749,1.5528-.121.0011-.24.2145-.684.6382ZM550.3234,53.6311c-.0219-.2219-.0437-.4438-.0656-.6657-.4897-.1399-.9749-.299-1.4698-.4164-2.1085-.5-4.3703-.6601-6.3006-1.5451-4.6777-2.1445-9.7083-3.0117-14.5895-4.3781-3.3928-.9497-6.9854-1.162-10.4572-1.8607-3.1043-.6248-6.1051.1035-8.9863.8336-4.7562,1.2052-9.3771,2.9471-14.048,4.4842-.9794.3223-1.9182.7663-2.893,1.1041-3.3413,1.158-6.6854,2.3085-10.0392,3.4295-1.0534.3521-2.1511.5701-3.2095.9087-.9074.2903-1.7879.6651-2.8685,1.0736.471.394.5967.5911.7251.5929,2.5947.0364,5.1974.3673,7.7581-.4597.7969-.2574,1.8786-.5029,2.535-.1708,2.4483,1.2386,4.9318.8382,7.4035.446,3.9885-.6328,7.9323-.349,11.8647.3367,3.3722.588,4.577,2.1568,4.4605,5.5565-.0194.5682.074,1.1403.1309,1.9272,1.0342-.0462,1.9374.0901,2.7235-.1527,3.2104-.9915,6.3891-2.087,9.571-3.1689,1.3803-.4693,2.7152-1.0879,4.1153-1.4792,2.0831-.5822,4.2772-.8269,6.2968-1.5641,4.486-1.6375,9.0081-3.0174,13.7722-3.593,1.2222-.1477,2.3821-.8117,3.5706-1.2386ZM448.3114,254.8483c-.3247-.1903-.5326-.3947-.7704-.439-3.0536-.5693-6.1115-1.1147-9.168-1.6687-.6833-.1238-1.383-.1972-2.0445-.396-4.3352-1.3034-8.8178-1.5265-13.1178-.4793-3.1862.776-6.3234.9263-9.5194,1.1145-1.9024.112-3.795.3912-5.6919.5961-2.4161.2609-4.9185.2186-7.2231.8727-2.142.608-4.2623.6537-6.409.8993-3.6061.4127-7.187,1.0459-10.7772,1.5946-.1663.0254-.3141.1611-.4809.1961-1.0106.2117-2.0171.4621-3.0383.6015-3.5088.4791-7.0235.9144-10.5346,1.3769-.3427.0451-.6735.175-1.0142.2436-3.3049.6654-6.585,1.6427-9.9223,1.9126-4.802.3884-8.944,2.6496-13.3857,4.0446-1.0551.3313-1.1849,1.4364-.2948,1.9851,1.7206,1.0605,3.4789,1.805,5.6581,1.2555,4.0174-1.0129,8.088-1.7798,12.2814-1.2697.6795.0827,1.4191.1204,2.0668-.0563,4.454-1.2152,8.9748-1.9255,13.5906-2.1141,1.2909-.0527,2.5681-.4134,3.8542-.6166,3.6866-.5824,7.3685-1.1994,11.0641-1.7186,2.4012-.3374,4.8205-.5553,7.2363-.7764,2.6775-.2451,5.3759-.3158,8.0373-.6716,4.5546-.609,9.0688-1.56,13.6347-2.0316,4.212-.435,8.4469-.2882,12.6534-1.2525,3.596-.8244,7.3686-.8757,11.0615-1.2829,1.0743-.1184,2.0934-.3489,2.2536-1.9198ZM400.9026,244.9694c-2.5189-1.0151-5.0581-1.7713-7.7641-1.818-5.8185-.1005-11.6367-.2165-17.4547-.3379-.6938-.0144-1.3916-.1855-2.0781-.1402-2.941.1943-5.9338.1769-8.7954.7746-1.6102.3363-3.1654.7157-4.8232.7605-1.9927.0539-4.01.1033-5.9658.4454-5.7162.9997-11.4068,2.1453-17.1086,3.228-.2548.0484-.5254.0145-.7798.0645-1.6852.3306-3.3686.6699-5.0512,1.0135-2.451.5005-4.8997,1.0123-7.3516,1.5078-.9356.1891-1.8908.2946-2.8145.5274-5.7902,1.4594-11.6082,2.8258-17.3414,4.4844-2.01.5814-3.9711,1.0397-6.0479,1.2633-1.6056.1729-3.1711.7914-4.7281,1.2934-.4112.1326-.7252.5671-1.3138,1.0527.6149.2071.9208.4014,1.2252.3991,5.4672-.041,10.9304-.0861,16.3545-.9665,2.651-.4302,5.348-.5692,8.0082-.9517,3.9375-.5662,7.8477-1.3355,11.7932-1.8289,4.9856-.6235,9.9958-1.049,14.9933-1.5799.7762-.0824,1.5391-.284,2.3117-.4081,1.7092-.2743,3.417-.5621,5.1326-.7894.9465-.1254,1.972.0547,2.8516-.2362,4.7647-1.5754,9.8346-.5894,14.6809-1.9317,2.4259-.6719,5.1451-.5572,7.6661-1.2835.7433-.2141,1.5448-.2219,2.3171-.3409,3.0702-.4734,6.2034-.716,9.185-1.5197,1.8025-.4858,3.5451-.7182,5.3645-.7433,2.6251-.0361,5.1539-.4822,7.5344-1.9386ZM495.4106,40.7063c-.8566-.1416-1.4911-.3153-2.1317-.3415-4.6876-.1916-9.3811-.2765-14.0631-.5551-2.6517-.1578-5.1171.3952-7.5963,1.1972-4.2742,1.3827-8.5851,2.6518-12.8646,4.0188-5.5097,1.7599-11.015,3.5354-16.4999,5.3705-3.1128,1.0415-6.1774,2.2264-9.2706,3.3275-4.1446,1.4754-8.3499,2.7972-12.4309,4.4306-5.389,2.157-10.9512,3.7202-16.5046,5.3453-1.2402.3629-2.3706,1.1014-3.5516,1.6669,1.8842.4979,3.6467.793,5.2713.4449,5.845-1.2524,11.8189-1.6845,17.6539-3.0383,4.7142-1.0937,9.531-1.8018,14.3345-2.4365,3.6377-.4806,7.1076-1.3991,10.52-2.7042,3.0728-1.1753,6.2029-2.2042,9.3234-3.2509,4.0166-1.3473,8.0347-2.6928,12.0785-3.955,3.3763-1.0539,6.7918-1.9821,10.1874-2.9748,2.4102-.7046,4.8195-1.4125,7.2226-2.1408,1.4958-.4534,3.0728-.7667,4.4413-1.4752,1.3192-.683,2.9214-1.1377,3.8804-2.9295ZM240.2447,253.0052c.1309.2096.2619.4191.3929.6286,3.2658-.3762,6.5525-.6265,9.7918-1.1628,3.4915-.5781,7.0132-.8858,10.5069-1.5867,3.3325-.6686,6.845-.5712,10.2359-1.4284,2.7607-.6978,5.7068-.7038,8.4287-1.5013,2.557-.7493,5.1108-.911,7.7051-1.1001.7751-.0565,1.5336-.3124,2.3066-.4329,1.8825-.2933,3.7645-.597,5.6548-.8311,3.9564-.49,7.9339-.8322,11.8739-1.4264,6.8591-1.0343,13.6886-2.2641,20.546-3.3105,3.5166-.5366,7.064-.88,10.6032-1.256,1.2812-.1361,2.3569-.4643,3.0098-2.1137-1.2796-.1756-2.4357-.4661-3.5933-.472-8.0002-.0402-16.0006-.028-24.0009-.0112-.8663.0018-1.7348.1182-2.598.219-3.2795.383-6.5561.7899-9.8362,1.1684-.8622.0995-1.7456.0542-2.5968.2037-3.4012.5972-6.775,1.3849-10.1939,1.8385-4.3014.5707-8.6432.8301-12.9551,1.331-2.0552.2388-4.0688.8368-6.1242,1.0726-2.9153.3344-5.6495,1.6981-8.6908,1.3496-2.4098-.2762-4.6416.6482-6.7707,1.6078-4.256,1.9183-8.4522,3.9707-12.6471,6.021-.4391.2146-.7034.7866-1.0488,1.1929ZM560.439,297.8583c1.6971.7642,2.9252.4876,4.2147-.2903,3.4107-2.0573,6.1222-4.9211,8.6742-7.8561,6.1285-7.0485,13.1434-13.1489,20.087-19.329,1.4713-1.3095,3.2668-2.2659,4.9564-3.3147,1.0543-.6544,1.9609-1.3493,2.2037-2.9828-1.9071-.5576-3.7154-1.0964-5.5296-1.6145-2.9046-.8295-5.4367-.4565-7.286,2.2269-.2882.4183-.7233.7642-1.1517,1.0525-3.4505,2.3232-6.9406,4.5882-10.369,6.9433-3.2549,2.2358-6.1003,4.9326-8.1815,8.3057-2.318,3.7571-4.1316,7.7863-5.868,11.8386-.6915,1.6138-1.1653,3.3209-1.7501,5.0205ZM510.453,101.9312c.0358.2666.0716.5332.1074.7998.8021,0,1.6469.165,2.3989-.0292,2.917-.7531,5.7974-1.6464,8.7047-2.439,4.1576-1.1334,8.3247-2.2323,12.4917-3.3309,3.3464-.8822,6.7655-1.5462,10.0324-2.6593,4.5933-1.565,9.1998-2.9641,14.0329-3.5343.5121-.0604,1.0093-.2578,1.5096-.4047,3.4782-1.0212,6.9329-2.1317,10.4387-3.0469,4.0021-1.0448,8.0599-1.8743,12.0734-2.8777,2.9438-.736,5.8504-1.6198,8.7829-2.4028,1.8288-.4883,3.7809-.667,5.4938-1.409,5.7131-2.4746,11.9272-2.8208,17.8384-4.4296,3.7554-1.0221,7.5716-1.8204,11.3299-2.8328,3.4259-.9228,6.7851-2.0979,10.2213-2.9756,2.6542-.678,5.3875-1.0419,8.0737-1.6027.7705-.1609,1.7942.0015,2.161-1.2778-.3832-.2075-.7216-.5096-1.1018-.5776-3.0687-.5494-6.1287-1.2373-9.2245-1.5183-2.6746-.2428-5.4051.1674-8.0885-.0241-4.358-.3109-8.405,1.1794-12.5921,1.8426-1.9598.3104-3.9685.5235-5.8405,1.1326-3.9357,1.2806-7.8249,2.6358-11.8787,3.5863-5.3596,1.2567-10.605,3.0016-15.896,4.5487-1.4927.4365-2.9697.9256-4.4597,1.3718-3.1478.9426-6.3131,1.8296-9.4463,2.8181-4.6946,1.4811-9.3713,3.0193-14.0487,4.5541-2.8678.941-5.7539,1.8385-8.5765,2.9024-4.6777,1.7633-9.299,3.6759-13.9662,5.4679-4.5245,1.7372-9.1015,3.3395-13.6071,5.1233-2.3746.9402-4.646,2.1414-6.964,3.2247ZM675.1521,206.5945c-.9861.0534-1.4658-.0588-1.7875.1175-4.7014,2.5765-9.4256,5.1167-14.0503,7.826-2.6747,1.567-5.0135,3.7973-7.8093,5.0433-2.9074,1.2959-5.466,2.9666-7.8721,4.9374-4.0138,3.2875-8.3638,6.1699-11.9596,9.9674-.9281.9802-1.7516,1.8681-1.5629,3.3734.0672.5358-.1859,1.2142-.5084,1.6775-1.0371,1.4901-2.1915,2.8979-3.2679,4.3615-.7637,1.0382-1.5329,2.0818-2.1705,3.1968-.1729.3024.123.873.3077,1.8959.9471-1.0638,1.5137-1.7637,2.1465-2.3977,1.2771-1.2796,2.3855-2.9546,3.9325-3.6889,2.9001-1.3766,5.014-3.696,7.5737-5.4554,1.6307-1.1208,3.2052-2.3384,4.7104-3.6233,3.0309-2.5874,5.8702-5.4147,9.0157-7.8495,7.4579-5.7729,14.1856-12.4591,22.1074-17.6503.3847-.2521.5712-.8067,1.1945-1.7316ZM819.6674,122.0468c-1.2397,1.0495-2.0323,1.6597-2.7556,2.3433-3.1495,2.9764-6.2592,5.9951-9.4286,8.95-.8268.7708-1.5937,1.6884-1.109,2.6978.8479,1.7656.4143,3.5477.5821,5.3225.4966,5.2515,1.157,10.4884,1.8314,15.7209.0755.5854.5497,1.4165,1.023,1.5714.4909.1607,1.2883-.2481,1.8002-.6176.5442-.3928.9777-.9896,1.3432-1.5705,1.6238-2.5807,2.5176-5.4596,3.2637-8.3823.7664-3.0024,1.5436-6.0064,2.1577-9.0418.513-2.5353.8857-5.1078,1.1549-7.6811.2155-2.0614.1998-4.1484.2512-6.2249.0202-.8171-.0564-1.6366-.1141-3.0878ZM48.1404,185.5182c-.6205,2.2118-1.8443,3.7384-1.2684,5.849.4739,1.7367.5165,3.5889.7876,5.3842.116.768.2814,1.5354.5035,2.2794.6407,2.1464,1.4379,4.253,1.9591,6.4266.7615,3.1757,2.0111,6.0432,4.2651,8.4598.7557.8102,1.239,1.8723,1.982,2.6976.4744.527,1.2382,1.2029,1.7978,1.1408.7107-.0788,1.6368-.693,1.9543-1.3324.6902-1.3898,1.1057-2.9076.3461-4.5114-.3249-.6859-.3558-1.5141-.5018-2.2812-.4345-2.2836-.6136-4.6518-1.3482-6.8336-1.0219-3.0349-1.7078-6.1173-2.3801-9.2327-.3696-1.7124-.9768-3.6986-2.1711-4.826-1.4965-1.4128-3.7053-2.071-5.9261-3.2203ZM169.8535,242.4097c.0254.2003.0508.4007.0762.601,3.3564.8639,6.7257,1.2435,10.09-.1029,1.6765-.6709,3.3429-1.3787,4.9672-2.166,4.0487-1.9623,8.1089-3.9074,12.0853-6.0092,1.6747-.8852,3.0541-2.3338,4.7359-3.1996,3.3846-1.7424,6.1469-4.5109,9.7894-5.8272.3862-.1396.6988-.9426.7151-1.4485.0079-.2459-.748-.7354-1.158-.7352-1.2866.0005-2.7615-.1895-3.8288.3529-6.2989,3.201-12.5624,6.4829-18.72,9.947-4.7679,2.6824-9.5746,5.2156-14.7844,6.9384-1.3561.4484-2.647,1.0941-3.9679,1.6493ZM179.4609,208.6028c-.1069-.222-.2137-.4441-.3206-.6661-2.326-.3669-4.6381-.8705-6.9156.5407-1.5439.9567-3.1144,1.8901-4.7486,2.6771-3.2151,1.5482-5.6967,3.8196-7.5987,6.8438-.8198,1.3035-1.8989,2.5261-3.0963,3.4928-2.4231,1.9563-3.9915,4.4924-5.46,7.1445-.4788.8648-.2908,1.5436.5099,1.9798.8333.454,1.6495.3988,2.3219-.4273.7079-.8698,1.3562-1.8507,2.2367-2.506,2.7802-2.0692,5.6573-4.0083,8.4963-5.9985.9218-.6462,1.9082-1.219,2.7509-1.956,3.391-2.9658,6.7539-5.9645,10.0865-8.9958.6702-.6097,1.1631-1.4143,1.7377-2.129ZM108.7299,229.263c1.1445-1.5412,2.0419-3.154,3.3135-4.3781,2.66-2.5608,4.5639-5.653,6.6547-8.6291,1.1894-1.6931,2.4638-3.3419,3.8436-4.8818,1.7254-1.9256,3.6533-3.6694,5.3854-5.5893.9193-1.019,1.6546-2.2171,2.3759-3.3937.2161-.3526.105-.9058.1796-1.792-1.0332.4162-1.8928.5196-2.3775,1.0007-1.8422,1.8287-4.3068,2.436-6.5076,3.5565-.3078.1567-.6372.299-.8964.519-3.2199,2.7337-6.3597,5.5311-8.0516,9.5629-.2971.708-.8282,1.3145-1.214,1.9892-1.3679,2.3915-2.692,4.8084-4.0865,7.184-1.0745,1.8305-.7132,3.2977,1.3808,4.8517ZM748.9566,203.2957c3.0879-.052,5.215-1.736,6.8982-3.8125,3.9695-4.8968,7.8766-9.8733,9.3632-16.2275.1152-.4925.5111-.9127.6854-1.3992.8992-2.5095,1.9226-4.989,2.5995-7.5589.5298-2.0114.7991-4.0397,2.0899-5.8033.542-.7405.6036-1.8326.9544-3.0006-2.2896.3684-3.1876,1.837-4.0623,3.1842-1.4587,2.2466-2.6794,4.6471-4.1252,6.9028-1.9708,3.0748-2.3019,6.9041-4.6059,9.8132-.097.1224-.0774.3344-.1202.5026-.4904,1.9272-.8664,3.8932-1.5004,5.772-1.0281,3.0458-2.3354,5.8717-5.1334,7.8986-1.177.8526-2.74,1.819-3.0432,3.7286ZM781.9352,178.2531c2.4211-1.5613,4.1015-3.1318,5.4404-5.0397,1.4419-2.0545,2.9475-4.089,4.1411-6.2866,1.4687-2.7042,3.0584-5.4139,2.9137-8.7061-.1257-2.8604-.0952-5.7275-.2015-8.5891-.026-.6978-.3177-1.3858-.633-2.6734-1.158,1.106-2.0397,1.6793-2.5401,2.4884-.7641,1.2355-1.2974,2.6201-1.8697,3.9665-.8134,1.9136-1.0629,3.9753-1.5552,5.9706-.7141,2.8942-2.0839,5.6225-3.1075,8.4457-.9098,2.5091-1.7838,5.0345-2.554,7.5888-.2233.7405-.0343,1.6054-.0343,2.8349ZM81.2477,211.1896c1.0469.2046,1.7976-.2487,1.8565-1.0795.2029-2.8619,1.6784-5.2499,2.8071-7.7337,1.2016-2.6441,1.2694-5.7038,3.3267-8.066.9489-1.0894.3055-2.2523-1.2293-2.7392-2.5456-.8074-5.1094-1.6026-7.7193-2.1427-1.2572-.2602-2.7295-.5624-4.1226.5109,1.9961,6.9858,4.1833,13.8765,5.0809,21.2502ZM573.8467,493.403c.6284-.1748.9506-.3016,1.2844-.3518,4.5243-.6801,9.058-1.3007,13.5731-2.0369,3.6215-.5905,4.6678-3.0462,2.7186-6.1377-.2312-.3666-.397-.7864-.6777-1.1076-1.7669-2.0215-3.7455-3.7433-6.6838-3.212-3.1603.5716-5.9537,1.9567-6.4809,5.4485-.4282,2.8354-2.1858,4.796-3.7335,7.3975ZM527.304,293.7572c2.1895,2.5241,5.8795,3.0912,8.6513,1.4977,2.0258-1.1647,4.0181-2.3249,5.4851-4.2698.7623-1.0106,1.8863-1.7887,2.95-2.5224,1.5706-1.0834,2.1806-2.7169,3.0279-4.3447-1.1149-.7415-1.9363-.7422-3.0397-.2236-2.5636,1.2048-5.2054,2.2637-7.8728,3.2224-3.6782,1.322-6.8323,3.2917-9.2018,6.6404ZM618.7766,484.3602c-.2111-.3042-.3401-.6641-.5954-.8319-3.3312-2.188-7.039-3.2511-10.9845-3.4409-.6946-.0334-1.5884.3108-2.0904.7928-1.1771,1.1303-2.2214,2.4114-3.2283,3.7027-1.1521,1.4775-1.3974,3.2191-1.3802,4.9352,6.488-.3842,12.5197-1.8041,18.2787-5.158ZM671.6324,248.0431c-.4849-1.128-.6457-2.3306-1.8107-2.2418-.6811.0519-1.3593.8531-1.9298,1.4258-.4798.4817-.7637,1.1522-1.2045,1.6806-.4325.5183-.9222,1.3287-1.4416,1.3733-1.8331.1577-2.6415,1.4461-3.5895,2.6878-.5216.683-1.0976,1.3956-1.8054,1.8531-3.4833,2.252-7.0374,4.3941-10.5266,6.6372-1.3404.8617-2.7878,1.6734-3.55,3.3676,1.0461.6179,1.8789.3701,2.7704-.0752,4.6288-2.3124,9.3231-4.4998,13.8897-6.9278,1.8887-1.0041,3.5926-2.4089,5.2387-3.7995,1.3642-1.1524,2.4168-2.575.9217-4.2912,1.0884-.6055,2.0209-1.1242,3.0377-1.6898ZM134.0685,213.3565c-.1717-.2077-.3435-.4154-.5152-.6231-.5484.0913-1.2856-.0124-1.6143.3058-2.048,1.9824-4.3465,3.8284-5.9172,6.155-2.8995,4.2951-5.388,8.8712-7.9598,13.3804-.4082.7156-.3575,1.693-.5624,2.7797,4.0799-.7713,6.1086-3.3762,7.4399-6.4234,1.857-4.2503,4.2912-8.1027,6.9774-11.8423.8336-1.1605,1.4408-2.4835,2.1517-3.7321ZM544.765,313.5106c1.5163.7883,2.5825,1.6533,3.7773,1.9028,3.034.6334,6.1226,1.0109,9.1955,1.4481,1.0286.1463,2.1954-.107,3.0916.2904,2.6288,1.1658,4.9056-.3433,7.3145-.7401.3762-.062.89-.9073.8543-1.3514-.0301-.375-.7406-.7325-1.1994-1.0182-.1903-.1185-.5096-.027-.7701-.036-3.0215-.1049-6.0436-.1966-9.0639-.3283-.5966-.026-1.1873-.2025-1.7794-.3166-1.3379-.2577-2.6709-.5431-4.0138-.7705-.6781-.1148-1.5357.1097-2.0323-.2292-1.9884-1.3572-3.4051-.2723-5.3742,1.149ZM302.8835,287.6215c.071-1.5851-.4413-2.1174-2.0237-2.3185-1.0177-.1293-2.0822-.1229-3.0413-.436-2.569-.8387-3.1531-.5187-3.1677,2.1565-.028,5.1362-.0136,10.2728.0142,15.409.0042.7735-.0292,1.6544.3106,2.2977.8258,1.5636.8283,3.1827.6688,4.8328-.1326,1.3718-.4159,2.7285-.5734,4.0987-.0983.8546.1876,1.5698,1.1176,1.8051.8841.2237,1.5718-.0978,1.8863-.9548.237-.6458.4406-1.3354.481-2.0162.1329-2.2387.1583-4.4836.2761-6.7235.0957-1.8204-.0653-3.741.4682-5.4342,1.2397-3.9342,1.0562-8.2754,3.3957-11.89.1757-.2715.1552-.67.1877-.8265ZM789.4887,345.3792c1.0497.2992,1.9104.5822,2.7899.7842.8371.1923,1.7567.1492,2.5305.4719,2.8454,1.1869,5.6233,2.5363,8.4749,3.7069.9236.3791,1.9911.4885,3.0014.5354.4052.0188,1.1195-.4053,1.1852-.7305.1018-.5033-.1079-1.1823-.4187-1.6222-.2704-.3828-.8409-.5955-1.3183-.7825-1.4672-.5747-2.5148-1.478-2.7883-3.1224-.1879-1.1296-.9514-1.5626-2.0463-1.5721-2.3399-.0205-4.6796-.0879-7.0195-.0928-1.7424-.0036-3.1562.6811-4.3908,2.424ZM90.4777,424.3957c-.9789-1.5342-1.9059-2.9298-3.7363-3.1369-3.3852-.383-6.7192-.2144-9.9054,1.1882-1.1887.5234-1.7603,1.3858-1.5817,2.6582.1563,1.1133,1.4167,2.0559,2.6853,1.9976,2.2422-.1029,4.4951-.1637,6.7179-.4448,2.0178-.2553,4.1991-.2565,5.8202-2.2623ZM115.5648,422.9984c1.5617,0,3.1309.0847,4.68-.0545.4328-.0388,1.1717-.7901,1.1243-1.1225-.0773-.5423-.5881-1.2052-1.0947-1.4558-.5819-.2879-1.3591-.1755-2.0502-.2493-.8581-.0917-1.8263.0273-2.5525-.3347-2.7466-1.369-5.6925-2.0017-8.6716-2.3674-1.5866-.1948-3.2718.0751-4.8597.3963-.6322.1278-1.2763.8698-1.6416,1.4926-.6032,1.0284-.9957,2.1824-1.4568,3.2918-.7057,1.6977-.2588,2.6769,1.4846,2.6543,2.3135-.0301,4.6531.1913,6.9329-.6814,2.5873-.9904,5.2572-1.7924,8.1053-1.5694ZM591.4732,301.5257c1.0279-.3586,2.1679-.5396,3.0643-1.1062,4.1744-2.6377,8.2884-5.3716,12.3973-8.111.2859-.1906.3557-.7053.5452-1.1105-.3537-.2058-.5924-.4673-.7772-.4336-2.6011.4743-5.3426.5886-7.2494,2.8711-.305.3652-.8826.5022-1.3335.7461-2.9142,1.5769-5.6199,3.3691-6.6468,7.144ZM160.7087,242.2978c-1.0977-.5888-2.0071-1.1572-2.9822-1.5704-.6216-.2634-1.408-.1608-2.0047-.4562-2.7162-1.3446-5.5843-.8461-8.4133-.7934-.9326.0173-1.881.4395-1.7536,1.459.0626.5009.973,1.1215,1.6042,1.2851,2.2357.5795,4.5285.9348,6.7758,1.4745,1.5685.3767,4.8598-.146,6.7738-1.3987ZM619.2189,255.7974c2.3348-.3232,3.1589-1.3579,3.0259-3.6535q-3.3021.7648-3.0259,3.6535ZM644.0322,266.9984c-.7308-1.4504-1.7031-.9737-2.5993-.4343-1.0701.6442-1.8668,1.4619-1.1691,2.8441,1.8357-.0874,3.0153-.895,3.7684-2.4098ZM250.1475,236.7604c-.9768.7065-2.0197,1.2923-1.1848,2.4837.264.3766,1.2609.5422,1.7771.3697.8044-.2688.5766-1.4498-.5923-2.8534Z"/>
  <path class="cls-1" d="M622.5726,257.7287c-.1493.1891-.2986.3783-.4479.5674.1493-.1892.2986-.3783.4479-.5674Z"/>
</svg>